<svg width="32" height="32" viewBox="0 0 32 32" fill="none" xmlns="http://www.w3.org/2000/svg">
<circle cx="16" cy="16" r="16" fill="white"/>
<path d="M13.907 4.80807L11.5718 8.25002C11.538 8.29972 11.52 8.35839 11.52 8.41845V21.8499C11.52 22.1433 11.8977 22.2623 12.0659 22.0219L14.4011 18.6831C14.4364 18.6327 14.4553 18.5726 14.4553 18.5111V4.9765C14.4553 4.68094 14.073 4.56349 13.907 4.80807Z" fill="#C20046"/>
<path d="M18.2595 16.8963H15.6512C15.4855 16.8963 15.3512 16.762 15.3512 16.5963V12.0753C15.3512 12.0438 15.3559 12.013 15.366 11.9832C15.6353 11.1897 16.3928 9.82876 17.4259 9.8116C18.3247 9.79668 18.94 10.078 19.1942 10.2713C19.4181 10.4678 19.9109 11.0942 20.0901 12.0278C20.314 13.1948 20.2669 13.2891 20.314 13.8314C20.361 14.3709 20.0462 16.5555 18.3134 16.8913C18.2958 16.8947 18.2774 16.8963 18.2595 16.8963Z" fill="#C20046"/>
<path d="M10.6005 16.1183V22.1486C10.6005 22.3143 10.4662 22.4486 10.3005 22.4486H6.67883C6.63747 22.4486 6.59686 22.4404 6.5593 22.4231C5.82084 22.0828 4.38869 21.1 4.14059 19.6666C3.88597 18.1954 4.0345 16.4209 4.14059 15.7175C4.36457 14.7391 5.35242 12.7822 7.51203 12.7822C9.67164 12.7822 10.4709 15.0063 10.6005 16.1183Z" fill="#570010"/>
<path d="M28 16.1065V22.1368C28 22.3025 27.8656 22.4368 27.7 22.4368H24.0782C24.0369 22.4368 23.9963 22.4286 23.9587 22.4113C23.2203 22.0711 21.7881 21.0882 21.54 19.6548C21.2854 18.1836 21.4339 16.4091 21.54 15.7057C21.764 14.7273 22.7518 12.7705 24.9114 12.7705C27.0711 12.7705 27.8703 14.9945 28 16.1065Z" fill="#570010"/>
<path d="M19.5718 18.1459H15.9136C15.6812 18.1459 15.5371 18.3987 15.6554 18.5987L17.8466 22.3014C17.9006 22.3926 17.9987 22.4486 18.1048 22.4486H21.6109C21.8391 22.4486 21.9837 22.2038 21.8736 22.0039L19.8346 18.3012C19.7819 18.2054 19.6812 18.1459 19.5718 18.1459Z" fill="#C20046"/>
<path d="M26.5934 11.8965C25.9853 11.4011 25.2171 11.4306 24.6906 11.5712C24.5001 11.622 24.2893 11.5115 24.2554 11.3173C24.1906 10.9464 24.1155 10.511 24.0732 10.2523C24.0516 10.1198 24.1287 10.0022 24.2597 9.97273C25.2336 9.75355 26.9455 9.69522 27.6157 10.8752C27.6687 10.9685 27.6557 11.0838 27.5929 11.1709L27.0982 11.8563C26.9827 12.0163 26.7464 12.0211 26.5934 11.8965Z" fill="#570010"/>
</svg>
