<svg width="32" height="31" viewBox="0 0 32 31" fill="none" xmlns="http://www.w3.org/2000/svg">
<path d="M15.9813 1C17.9889 0.997072 19.9767 1.38113 21.827 2.12943C23.6773 2.87773 25.3524 3.97506 26.7533 5.35645C28.1285 6.71246 29.2121 8.31537 29.9424 10.0737C30.6726 11.832 31.0352 13.7112 31.0094 15.6042C30.9836 17.4971 30.57 19.3666 29.7921 21.1059C29.0141 22.8453 27.8872 24.4204 26.4756 25.7414C24.0721 27.9849 20.956 29.3911 17.6238 29.7356C14.2917 30.0802 10.9354 29.3434 8.08991 27.6427L8.23175 27.775L2.34364 29.8018L4.61335 24.7953C2.13091 22.0136 0.844305 18.4281 1.01506 14.7678C1.18581 11.1075 2.80111 7.64695 5.53262 5.08963C8.32912 2.4727 12.0773 1.00569 15.9813 1Z" stroke="white" stroke-width="1.032" stroke-linecap="round" stroke-linejoin="round"/>
<path d="M10.3222 14.794C10.8491 14.7942 11.2303 15.1975 11.2304 15.6397C11.2304 16.082 10.8491 16.4862 10.3222 16.4864C9.79511 16.4864 9.414 16.0821 9.414 15.6397C9.4141 15.1974 9.79518 14.794 10.3222 14.794Z" stroke="white" stroke-width="1.33333"/>
<path d="M16.263 14.794C16.7899 14.7942 17.1711 15.1975 17.1712 15.6397C17.1712 16.082 16.7899 16.4862 16.263 16.4864C15.7359 16.4864 15.3548 16.0821 15.3548 15.6397C15.3549 15.1974 15.736 14.794 16.263 14.794Z" stroke="white" stroke-width="1.33333"/>
<path d="M22.2039 14.794C22.7307 14.7942 23.112 15.1975 23.1121 15.6397C23.1121 16.082 22.7308 16.4862 22.2039 16.4864C21.6768 16.4864 21.2957 16.0821 21.2957 15.6397C21.2958 15.1974 21.6768 14.794 22.2039 14.794Z" stroke="white" stroke-width="1.33333"/>
</svg>
