<svg width="54" height="43" viewBox="0 0 54 43" fill="none" xmlns="http://www.w3.org/2000/svg">
<path d="M52.2727 0.398193H14.9717C14.4858 0.398193 14 0.830043 14 1.36985V22.4765C14 22.9623 14.4319 23.4482 14.9717 23.4482C15.4575 23.4482 15.9433 23.0163 15.9433 22.4765V2.34152H51.301V24.2579H25.8759C25.39 24.2579 24.9042 24.6897 24.9042 25.2295C24.9042 25.7154 25.3361 26.2012 25.8759 26.2012H52.2187C52.7045 26.2012 53.1903 25.7694 53.1903 25.2295V1.36985C53.1903 0.830043 52.8125 0.398193 52.2727 0.398193Z" fill="#C20046"/>
<path d="M6.33869 11.3644C9.20074 11.3644 11.5209 9.04424 11.5209 6.18219C11.5209 3.32015 9.20074 1 6.33869 1C3.47664 1 1.15649 3.32015 1.15649 6.18219C1.15649 9.04424 3.47664 11.3644 6.33869 11.3644Z" fill="#C20046"/>
<path d="M44.8811 37.3214C47.4152 37.3214 49.4695 35.2671 49.4695 32.733C49.4695 30.1989 47.4152 28.1446 44.8811 28.1446C42.347 28.1446 40.2927 30.1989 40.2927 32.733C40.2927 35.2671 42.347 37.3214 44.8811 37.3214Z" fill="#C20046"/>
<path d="M27.7151 37.3214C30.2492 37.3214 32.3035 35.2671 32.3035 32.733C32.3035 30.1989 30.2492 28.1446 27.7151 28.1446C25.181 28.1446 23.1267 30.1989 23.1267 32.733C23.1267 35.2671 25.181 37.3214 27.7151 37.3214Z" fill="#C20046"/>
<path d="M24.3143 21.9367L30.954 13.3537C31.1699 13.0838 31.1159 12.652 30.846 12.436C30.5761 12.2201 30.1443 12.2741 29.9284 12.544L23.3427 21.181C22.6949 20.9651 21.9931 21.073 21.4533 21.5049L17.0269 25.3375L8.01199 23.5022C7.90403 23.5022 7.74209 23.4482 7.63412 23.4482C7.25626 23.3942 6.82441 23.3402 6.39256 23.3402H6.28459C3.31563 23.3402 0.886475 25.3915 0.886475 27.9286V42.5575H11.7367V28.2525L17.1348 29.3321C17.2428 29.3321 17.3507 29.3861 17.5127 29.3861C17.9445 29.3861 18.4304 29.2242 18.7542 28.9543L23.8825 24.5278C24.6922 23.8261 24.8541 22.7464 24.3143 21.9367Z" fill="#C20046"/>
<path d="M44.9352 38.2931H44.8273C41.5884 38.2931 39.0513 40.1285 39.0513 42.3957V42.6116H50.8192V42.3957C50.7652 40.1285 48.1741 38.2931 44.9352 38.2931Z" fill="#C20046"/>
<path d="M27.7692 38.2931H27.6612C24.4224 38.2931 21.8853 40.1285 21.8853 42.3957V42.6116H33.6532V42.3957C33.5452 40.1285 30.9541 38.2931 27.7692 38.2931Z" fill="#C20046"/>
<path d="M45.2376 27H21.9717C21.4858 27 21 27.4319 21 27.9717C21 28.4575 21.4318 28.9433 21.9717 28.9433H45.2915C45.7774 28.9433 46.2632 28.5115 46.2632 27.9717C46.2632 27.4319 45.8313 27 45.2376 27Z" fill="#C20046"/>
<path d="M46.7703 12.328H34.9485C34.4626 12.328 33.9768 12.7599 33.9768 13.2997C33.9768 13.8395 34.4087 14.2713 34.9485 14.2713H46.8243C47.3102 14.2713 47.796 13.8395 47.796 13.2997C47.742 12.7059 47.3641 12.328 46.7703 12.328Z" fill="#C20046"/>
<path d="M46.7705 19.6156H32.1955C31.7097 19.6156 31.2239 20.0475 31.2239 20.5873C31.2239 21.0731 31.6557 21.5589 32.1955 21.5589H46.8784C47.3643 21.5589 47.8501 21.1271 47.8501 20.5873C47.7421 19.9935 47.3643 19.6156 46.7705 19.6156Z" fill="#C20046"/>
</svg>
