<svg width="53" height="42" viewBox="0 0 53 42" fill="none" xmlns="http://www.w3.org/2000/svg">
<path d="M37.6442 40.9791C37.6442 41.2578 37.4212 41.4859 37.1374 41.4859L20.3115 41.4808H16.3989C16.1201 41.4808 15.8921 41.2528 15.8921 40.974C15.8921 40.6952 16.1201 40.4672 16.3989 40.4672H19.8047V35.9414H33.7368V40.4722H37.1374C37.4212 40.4722 37.6442 40.6952 37.6442 40.9791Z" fill="#C20046"/>
<path d="M35.9287 12.9609C35.8978 12.9407 35.8681 12.9337 35.8418 12.9337C35.8089 12.9337 35.7814 12.9446 35.7639 12.9543C35.7325 12.9714 35.6796 13.0125 35.6796 13.0959V19.7925C35.6796 19.8761 35.7325 19.9172 35.7639 19.9343C35.7953 19.9508 35.8589 19.9727 35.9287 19.9277L41.0638 16.578C41.1273 16.5364 41.1367 16.4755 41.1367 16.4431C41.1367 16.4104 41.1273 16.3493 41.0635 16.3078L35.9287 12.9609Z" fill="#C20046"/>
<path d="M16.0433 18.2035C15.9324 18.2436 15.8112 18.2436 15.7004 18.2035L10.2767 16.2531V20.4281C10.2767 20.7661 10.5541 21.0412 10.8949 21.0412H20.8536C21.1916 21.0412 21.4668 20.7661 21.4668 20.4281V16.2534L20.7879 16.4972L16.0433 18.2035Z" fill="#C20046"/>
<path d="M9.94134 15.0554L10.9723 15.4262L15.8728 17.1864L20.3483 15.5783L21.802 15.0555C21.8034 15.0549 21.8048 15.0551 21.8061 15.0545L23.2581 14.5328L15.8743 11.8805L8.48901 14.5343L9.93765 15.0546C9.93881 15.0549 9.94007 15.0549 9.94134 15.0554Z" fill="#C20046"/>
<path d="M37.6661 9.89484C34.0541 9.89484 31.1155 12.8334 31.1155 16.4456C31.1155 20.0576 34.0541 22.9962 37.6661 22.9962C41.2781 22.9962 44.2167 20.0576 44.2167 16.4456C44.2167 12.8334 41.2781 9.89484 37.6661 9.89484ZM41.6176 17.4267L36.4825 20.7764C36.288 20.9033 36.0646 20.9674 35.8408 20.9674C35.6488 20.9674 35.4565 20.9204 35.2811 20.8254C34.9018 20.62 34.6659 20.224 34.6659 19.7925V13.0959C34.6659 12.6643 34.9014 12.2686 35.2809 12.0632C35.6613 11.8572 36.1213 11.8769 36.4821 12.1116L41.6171 15.4586C41.9513 15.6763 42.1504 16.0444 42.1504 16.443C42.1504 16.8414 41.9512 17.2091 41.6176 17.4267Z" fill="#C20046"/>
<path d="M5.48389 6.46586V26.4257C5.48389 26.8974 5.86745 27.281 6.33915 27.281H26.2629V5.6106H6.33915C5.86745 5.6106 5.48389 5.99416 5.48389 6.46586ZM6.81844 14.0573L15.7027 10.865C15.8136 10.8249 15.935 10.8249 16.0454 10.865L24.9281 14.0558C24.933 14.0576 24.9367 14.0613 24.9416 14.0632C24.9581 14.0697 24.9716 14.0801 24.9873 14.0882C25.0258 14.1082 25.0612 14.1309 25.0928 14.1592C25.1077 14.1727 25.1205 14.1869 25.1339 14.202C25.1613 14.2334 25.1838 14.2672 25.2027 14.3042C25.2114 14.321 25.2208 14.3363 25.2275 14.3541C25.249 14.4105 25.2636 14.4698 25.2636 14.5327V18.7309C25.2636 19.0108 25.0367 19.2377 24.7568 19.2377C24.4768 19.2377 24.2499 19.0108 24.2499 18.7309V15.2532L22.4801 15.8892V20.4281C22.4801 21.3251 21.7503 22.0549 20.8532 22.0549H10.8946C9.9948 22.0549 9.26278 21.3251 9.26278 20.4281V15.8891L6.81855 15.0111C6.61707 14.9389 6.48296 14.7481 6.48296 14.5343C6.48317 14.3203 6.61728 14.1295 6.81844 14.0573Z" fill="#C20046"/>
<path d="M49.5742 0.495483H3.96177C2.2893 0.495483 0.920898 1.85882 0.920898 3.53635V31.887C0.920898 33.5646 2.2893 34.9279 3.96177 34.9279H49.5742C51.2517 34.9279 52.6151 33.5646 52.6151 31.887V3.53635C52.6151 1.85872 51.2517 0.495483 49.5742 0.495483ZM49.0692 26.4259C49.0692 27.4562 48.2308 28.2947 47.2003 28.2947H26.7697H6.33926C5.30887 28.2947 4.47037 27.4563 4.47037 26.4259V6.46599C4.47037 5.43561 5.30877 4.59711 6.33926 4.59711H26.7699H47.2005C48.2309 4.59711 49.0694 5.4355 49.0694 6.46599V26.4259H49.0692Z" fill="#C20046"/>
<path d="M47.2004 5.6106H27.2766V27.281H47.2004C47.6721 27.281 48.0557 26.8974 48.0557 26.4257V6.46586C48.0557 5.99416 47.6721 5.6106 47.2004 5.6106ZM37.6661 24.01C33.4951 24.01 30.1019 20.6167 30.1019 16.4457C30.1019 12.2747 33.4951 8.88131 37.6661 8.88131C41.8371 8.88131 45.2303 12.2747 45.2303 16.4457C45.2303 20.6167 41.8371 24.01 37.6661 24.01Z" fill="#C20046"/>
</svg>
