<svg width="46" height="45" viewBox="0 0 46 45" fill="none" xmlns="http://www.w3.org/2000/svg">
<g clip-path="url(#clip0_109_509)">
<path d="M19.5297 21.1356C20.826 21.7672 21.6285 22.6987 21.6285 23.9085V37.5839C21.6285 36.9404 15.9779 33.1775 9.45095 37.2828V22.0714C10.1827 22.325 10.9534 22.4917 11.7662 22.4917H15.3684C16.9192 22.4917 18.3513 21.9814 19.5297 21.1356ZM21.6646 11.694V15.2962C21.6646 18.7669 18.8399 21.5925 15.3684 21.5925H11.7662C8.29461 21.5925 5.46994 18.7665 5.46994 15.2962V11.694C5.46994 8.22332 8.29461 5.39737 11.7662 5.39737H15.3684C18.8399 5.3978 21.6646 8.22374 21.6646 11.694ZM19.7617 10.877L18.1714 9.28676L12.142 15.3191L8.96356 12.1411L7.37327 13.7314L12.142 18.4976L19.7617 10.877ZM35.7672 37.2853V21.3651C34.4781 20.6206 32.738 20.168 30.8186 20.168C26.8299 20.168 23.5942 21.4771 23.5942 23.9111V37.5861C23.5942 36.943 29.2457 33.1804 35.7672 37.2853ZM45.0565 8.99661V35.9873C45.0565 40.9359 41.0084 44.9843 36.0594 44.9843H9.06875C4.12017 44.9843 0.0721436 40.9359 0.0721436 35.9873V8.99661C0.0721436 4.04803 4.12017 0 9.06875 0H36.059C41.0084 0 45.0565 4.04803 45.0565 8.99661ZM39.4334 14.0169L22.5864 5.64043L22.5796 5.62304L22.5639 5.63195L22.5486 5.62304L22.5422 5.64255L20.4904 6.66188C19.1835 5.33077 17.368 4.49809 15.3684 4.49809H11.7662C7.80892 4.49809 4.57024 7.73677 4.57024 11.694V15.2962C4.57024 17.8473 5.92891 20.0857 7.94423 21.363C7.94423 21.6803 7.94423 22.0285 7.94423 22.4294V38.7594H19.9844C20.3963 39.1106 21.3766 39.3634 22.5257 39.3634C23.6799 39.3634 24.6594 39.1106 25.0747 38.7594H37.184V22.4294C37.184 20.9787 37.184 20.0344 37.184 19.9771C29.5621 16.6218 23.4776 20.1727 22.709 20.8819C22.44 20.627 21.8309 20.202 20.9397 19.7837C21.9412 18.5468 22.5639 16.9998 22.5639 15.2962V11.694C22.5639 10.8745 22.3972 10.0991 22.1414 9.36565L22.5639 9.15356L38.0298 16.8415L39.4334 14.0169Z" fill="#C20046"/>
</g>
<defs>
<clipPath id="clip0_109_509">
<rect width="44.9843" height="44.9843" fill="white" transform="translate(0.0721436)"/>
</clipPath>
</defs>
</svg>
