<svg width="55" height="54" viewBox="0 0 55 54" fill="none" xmlns="http://www.w3.org/2000/svg">
<path d="M38.6442 46.9791C38.6442 47.2578 38.4212 47.4859 38.1374 47.4859L21.3115 47.4808H17.3989C17.1201 47.4808 16.8921 47.2528 16.8921 46.974C16.8921 46.6952 17.1201 46.4672 17.3989 46.4672H20.8047V41.9414H34.7368V46.4722H38.1374C38.4212 46.4722 38.6442 46.6952 38.6442 46.9791Z" fill="#C20046"/>
<path d="M36.9287 18.9609C36.8978 18.9407 36.8681 18.9337 36.8418 18.9337C36.8089 18.9337 36.7814 18.9446 36.7639 18.9543C36.7325 18.9714 36.6796 19.0125 36.6796 19.0959V25.7925C36.6796 25.8761 36.7325 25.9172 36.7639 25.9343C36.7953 25.9508 36.8589 25.9727 36.9287 25.9277L42.0638 22.578C42.1273 22.5364 42.1367 22.4755 42.1367 22.4431C42.1367 22.4104 42.1273 22.3493 42.0635 22.3078L36.9287 18.9609Z" fill="#C20046"/>
<path d="M17.0433 24.2035C16.9324 24.2436 16.8112 24.2436 16.7004 24.2035L11.2767 22.2531V26.4281C11.2767 26.7661 11.5541 27.0412 11.8949 27.0412H21.8536C22.1916 27.0412 22.4668 26.7661 22.4668 26.4281V22.2534L21.7879 22.4972L17.0433 24.2035Z" fill="#C20046"/>
<path d="M10.9413 21.0554L11.9723 21.4262L16.8728 23.1864L21.3483 21.5783L22.802 21.0555C22.8034 21.0549 22.8048 21.0551 22.8061 21.0545L24.2581 20.5328L16.8743 17.8805L9.48901 20.5343L10.9376 21.0546C10.9388 21.0549 10.9401 21.0549 10.9413 21.0554Z" fill="#C20046"/>
<path d="M38.6661 15.8948C35.0541 15.8948 32.1155 18.8334 32.1155 22.4456C32.1155 26.0576 35.0541 28.9962 38.6661 28.9962C42.2781 28.9962 45.2167 26.0576 45.2167 22.4456C45.2167 18.8334 42.2781 15.8948 38.6661 15.8948ZM42.6176 23.4267L37.4825 26.7764C37.288 26.9033 37.0646 26.9674 36.8408 26.9674C36.6488 26.9674 36.4565 26.9204 36.2811 26.8254C35.9018 26.62 35.6659 26.224 35.6659 25.7925V19.0959C35.6659 18.6643 35.9014 18.2686 36.2809 18.0632C36.6613 17.8572 37.1213 17.8769 37.4821 18.1116L42.6171 21.4586C42.9513 21.6763 43.1504 22.0444 43.1504 22.443C43.1504 22.8414 42.9512 23.2091 42.6176 23.4267Z" fill="#C20046"/>
<path d="M6.48389 12.4659V32.4257C6.48389 32.8974 6.86745 33.281 7.33915 33.281H27.2629V11.6106H7.33915C6.86745 11.6106 6.48389 11.9942 6.48389 12.4659ZM7.81844 20.0573L16.7027 16.865C16.8136 16.8249 16.935 16.8249 17.0454 16.865L25.9281 20.0558C25.933 20.0576 25.9367 20.0613 25.9416 20.0632C25.9581 20.0697 25.9716 20.0801 25.9873 20.0882C26.0258 20.1082 26.0612 20.1309 26.0928 20.1592C26.1077 20.1727 26.1205 20.1869 26.1339 20.202C26.1613 20.2334 26.1838 20.2672 26.2027 20.3042C26.2114 20.321 26.2208 20.3363 26.2275 20.3541C26.249 20.4105 26.2636 20.4698 26.2636 20.5327V24.7309C26.2636 25.0108 26.0367 25.2377 25.7568 25.2377C25.4768 25.2377 25.2499 25.0108 25.2499 24.7309V21.2532L23.4801 21.8892V26.4281C23.4801 27.3251 22.7503 28.0549 21.8532 28.0549H11.8946C10.9948 28.0549 10.2628 27.3251 10.2628 26.4281V21.8891L7.81855 21.0111C7.61707 20.9389 7.48296 20.7481 7.48296 20.5343C7.48317 20.3203 7.61728 20.1295 7.81844 20.0573Z" fill="#C20046"/>
<path d="M50.5742 6.49548H4.96177C3.2893 6.49548 1.9209 7.85882 1.9209 9.53635V37.887C1.9209 39.5646 3.2893 40.9279 4.96177 40.9279H50.5742C52.2517 40.9279 53.6151 39.5646 53.6151 37.887V9.53635C53.6151 7.85872 52.2517 6.49548 50.5742 6.49548ZM50.0692 32.4259C50.0692 33.4562 49.2308 34.2947 48.2003 34.2947H27.7697H7.33926C6.30887 34.2947 5.47037 33.4563 5.47037 32.4259V12.466C5.47037 11.4356 6.30877 10.5971 7.33926 10.5971H27.7699H48.2005C49.2309 10.5971 50.0694 11.4355 50.0694 12.466V32.4259H50.0692Z" fill="#C20046"/>
<path d="M48.2004 11.6106H28.2766V33.281H48.2004C48.6721 33.281 49.0557 32.8974 49.0557 32.4257V12.4659C49.0557 11.9942 48.6721 11.6106 48.2004 11.6106ZM38.6661 30.01C34.4951 30.01 31.1019 26.6167 31.1019 22.4457C31.1019 18.2747 34.4951 14.8813 38.6661 14.8813C42.8371 14.8813 46.2303 18.2747 46.2303 22.4457C46.2303 26.6167 42.8371 30.01 38.6661 30.01Z" fill="#C20046"/>
</svg>
