<svg width="40" height="40" viewBox="0 0 40 40" fill="none" xmlns="http://www.w3.org/2000/svg">
<path d="M15 17.44C16.52 17.44 17.8 16.24 17.8 14.76C17.8 13.28 16.56 12.08 15 12.08C13.48 12.08 12.2 13.28 12.2 14.76C12.2 16.28 13.44 17.44 15 17.44ZM15 12.88C16.08 12.88 16.96 13.76 16.96 14.76C16.96 15.8 16.08 16.64 15 16.64C13.92 16.64 13.04 15.76 13.04 14.76C13.04 13.76 13.88 12.88 15 12.88Z" fill="#570010"/>
<path d="M17.6 21.92V20.96C17.56 20.68 17.36 20.52 17.2 20.52C16.96 20.52 16.8 20.72 16.8 20.92V21.76H15.4L15 20.36C14.96 20.16 14.76 20.08 14.64 20.08H7.63999C7.51999 20.08 7.39999 20.12 7.31999 20.28C7.23999 20.32 7.23999 20.48 7.23999 20.6L8.79999 25.8C8.83999 26 9.03999 26.08 9.15999 26.08H16.08C16.2 26.08 16.32 26.04 16.4 25.88C16.48 25.76 16.48 25.64 16.44 25.52L15.6 22.56H16.92C17.28 22.56 17.6 22.28 17.6 21.92ZM9.47999 25.24L8.15999 20.8H14.28L15.56 25.24H9.47999Z" fill="#570010"/>
<path d="M11.8 19.32C12.16 19 12.68 18.76 13.24 18.76H16.72C17.92 18.76 18.8 19.68 18.8 20.76C18.8 21 19 21.16 19.2 21.16C19.4 21.16 19.6 20.96 19.6 20.76C19.6 19.16 18.28 17.92 16.68 17.92H13.2C12.44 17.92 11.76 18.2 11.24 18.68C11.04 18.8 11.04 19.08 11.2 19.24C11.4 19.44 11.68 19.44 11.8 19.32Z" fill="#570010"/>
<path d="M23 21.6C24.88 21.6 26.4 20.08 26.4 18.28C26.4 16.4 24.84 14.96 23 14.96C21.16 14.96 19.6 16.44 19.6 18.28C19.6 20.12 21.12 21.56 23 21.6ZM23 15.76C24.4 15.76 25.6 16.88 25.6 18.28C25.6 19.68 24.48 20.8 23 20.8C21.52 20.8 20.4 19.64 20.4 18.28C20.4 16.92 21.56 15.76 23 15.76Z" fill="#570010"/>
<path d="M32.6799 25.28C32.5999 25.16 32.48 25.08 32.36 25.08H23.52C23.4 25.08 23.2 25.16 23.16 25.36L22.6 27.2H20.64V26.08C20.64 25.84 20.44 25.68 20.24 25.68C20.04 25.68 19.84 25.88 19.84 26.08V27.32C19.84 27.72 20.16 28.04 20.56 28.04H22.4L21.88 29.76H19.48C18.72 29.76 18.08 29.12 18.08 28.4V25.92C18.08 24.48 19.32 23.24 20.88 23.24H25.2C25.92 23.24 26.6 23.52 27.12 23.96C27.24 24.08 27.5199 24.08 27.6799 23.92C27.7999 23.8 27.7999 23.52 27.6399 23.36C27 22.8 26.12 22.4 25.16 22.4H20.8C18.84 22.4 17.2 23.96 17.2 25.92L17.24 28.4C17.24 29.64 18.24 30.6 19.48 30.6H21.64L21.32 31.72H18.72C18.48 31.72 18.32 31.92 18.32 32.12C18.32 32.32 18.52 32.52 18.72 32.52H21.4C21.44 32.56 21.52 32.56 21.6 32.56H30.4C30.5199 32.56 30.72 32.48 30.76 32.28L32.72 25.64C32.76 25.52 32.7599 25.4 32.6799 25.28ZM30.12 31.72H22.12L23.84 25.88H31.8799L30.12 31.72Z" fill="#570010"/>
<path d="M27.04 13.68C27.12 13.76 27.24 13.8 27.36 13.8C27.48 13.8 27.6 13.76 27.68 13.68L30 11.36C30.16 11.2 30.16 10.88 30 10.72C29.84 10.56 29.52 10.56 29.36 10.72L27.36 12.72L26.28 11.6C26.12 11.4 25.8 11.4 25.64 11.6C25.44 11.76 25.44 12.08 25.64 12.24L27.04 13.68Z" fill="#570010"/>
</svg>
