<svg width="50" height="53" viewBox="0 0 50 53" fill="none" xmlns="http://www.w3.org/2000/svg">
<path d="M31.6987 38.6241H21.4253C21.2705 38.6221 21.1226 38.5597 21.0132 38.4503C20.9037 38.3408 20.8413 38.1929 20.8393 38.0382V36.2101C20.8676 33.9791 20.0271 31.8247 18.4956 30.2022C16.915 28.6065 15.841 26.5794 15.4086 24.3753C14.9761 22.1713 15.2045 19.8886 16.065 17.814C16.9254 15.7393 18.3797 13.9651 20.2451 12.7141C22.1105 11.4631 24.3039 10.7911 26.5499 10.7824C28.796 10.7738 30.9945 11.4289 32.8694 12.6655C34.7444 13.9022 36.2122 15.6651 37.0887 17.7331C37.9651 19.8012 38.211 22.082 37.7955 24.2893C37.38 26.4966 36.3217 28.5319 34.7534 30.1397C33.1419 31.8569 32.2669 34.1369 32.3159 36.4913V38.0538C32.3139 38.1321 32.2962 38.2093 32.2639 38.2806C32.2316 38.352 32.1853 38.4162 32.1278 38.4694C32.0702 38.5225 32.0026 38.5636 31.9289 38.5902C31.8552 38.6168 31.7769 38.6283 31.6987 38.6241ZM22.0112 37.421H31.1128V36.4913C31.0636 33.8323 32.0594 31.26 33.8862 29.3272C35.3604 27.8128 36.3296 25.8792 36.6607 23.7919C36.9918 21.7045 36.6686 19.5659 35.7355 17.6696C34.8023 15.7733 33.305 14.2125 31.4491 13.2013C29.5932 12.1902 27.4699 11.7784 25.3706 12.0226C23.1799 12.2934 21.134 13.26 19.5336 14.7802C17.9333 16.3004 16.8629 18.294 16.4799 20.4679C16.2079 22.0729 16.3256 23.7198 16.8233 25.2698C17.3209 26.8198 18.1838 28.2274 19.3393 29.3741C21.0992 31.2125 22.0719 33.6652 22.0503 36.2101L22.0112 37.421Z" fill="#0C4D8B"/>
<path d="M26.5659 45.7882C25.3544 45.7861 24.1932 45.304 23.3365 44.4473C22.4798 43.5907 21.9977 42.4294 21.9956 41.2179V38.0382C21.9976 37.8834 22.06 37.7356 22.1695 37.6261C22.2789 37.5167 22.4268 37.4543 22.5815 37.4523H30.5425C30.6979 37.4523 30.8469 37.514 30.9568 37.6239C31.0667 37.7338 31.1284 37.8828 31.1284 38.0382V41.2179C31.1264 42.428 30.6453 43.5881 29.7903 44.4446C28.9353 45.301 27.7761 45.7841 26.5659 45.7882ZM23.1675 38.6241V41.2179C23.1454 41.6774 23.2169 42.1365 23.3775 42.5676C23.5382 42.9986 23.7847 43.3926 24.102 43.7255C24.4194 44.0585 24.8011 44.3236 25.2239 44.5047C25.6468 44.6858 26.102 44.7792 26.562 44.7792C27.022 44.7792 27.4772 44.6858 27.9001 44.5047C28.3229 44.3236 28.7046 44.0585 29.022 43.7255C29.3394 43.3926 29.5858 42.9986 29.7465 42.5676C29.9071 42.1365 29.9786 41.6774 29.9565 41.2179V38.6241H23.1675Z" fill="#0C4D8B"/>
<path d="M30.5425 41.0773H22.5815C22.4261 41.0773 22.2771 41.0155 22.1672 40.9057C22.0573 40.7958 21.9956 40.6467 21.9956 40.4913C21.9956 40.3359 22.0573 40.1869 22.1672 40.077C22.2771 39.9671 22.4261 39.9054 22.5815 39.9054H30.5425C30.6979 39.9054 30.8469 39.9671 30.9568 40.077C31.0667 40.1869 31.1284 40.3359 31.1284 40.4913C31.1284 40.6467 31.0667 40.7958 30.9568 40.9057C30.8469 41.0155 30.6979 41.0773 30.5425 41.0773Z" fill="#0C4D8B"/>
<path d="M30.2769 43.2882H22.8706C22.7152 43.2882 22.5662 43.2265 22.4563 43.1166C22.3464 43.0067 22.2847 42.8577 22.2847 42.7023C22.2847 42.5469 22.3464 42.3978 22.4563 42.288C22.5662 42.1781 22.7152 42.1163 22.8706 42.1163H30.2769C30.4323 42.1163 30.5813 42.1781 30.6912 42.288C30.8011 42.3978 30.8628 42.5469 30.8628 42.7023C30.8628 42.8577 30.8011 43.0067 30.6912 43.1166C30.5813 43.2265 30.4323 43.2882 30.2769 43.2882Z" fill="#0C4D8B"/>
<path d="M27.644 29.6085H25.4878C25.3414 29.6092 25.2001 29.555 25.0917 29.4567C24.9832 29.3584 24.9155 29.223 24.9019 29.0773L24.8081 27.7648C24.3644 27.6521 23.9365 27.4841 23.5347 27.2648L22.5581 28.046C22.4467 28.1386 22.3045 28.1859 22.1599 28.1787C22.0152 28.1714 21.8785 28.1102 21.7769 28.007L20.2456 26.4835C20.1424 26.3819 20.0811 26.2452 20.0739 26.1005C20.0667 25.9558 20.114 25.8137 20.2065 25.7023L20.9878 24.7335C20.7637 24.3366 20.588 23.9144 20.4644 23.4757L19.23 23.3585C19.0849 23.3432 18.9506 23.275 18.8526 23.1669C18.7546 23.0588 18.6998 22.9185 18.6987 22.7726V20.6163C18.6998 20.4705 18.7546 20.3301 18.8526 20.222C18.9506 20.114 19.0849 20.0457 19.23 20.0304L20.4878 19.9132C20.6126 19.4799 20.7883 19.063 21.0112 18.671L20.23 17.7023C20.1374 17.5908 20.0901 17.4487 20.0973 17.304C20.1046 17.1594 20.1658 17.0227 20.269 16.921L21.7925 15.3585C21.8991 15.2608 22.0385 15.2066 22.1831 15.2066C22.3277 15.2066 22.4671 15.2608 22.5737 15.3585L23.5503 16.1398C23.9502 15.9259 24.3719 15.7557 24.8081 15.632L24.9331 14.3585C24.9485 14.2135 25.0167 14.0791 25.1247 13.9811C25.2328 13.8832 25.3732 13.8284 25.519 13.8273H27.6753C27.8207 13.8301 27.9601 13.8854 28.0678 13.9831C28.1756 14.0807 28.2443 14.2141 28.2612 14.3585L28.3784 15.6241C28.8147 15.7546 29.2362 15.93 29.6362 16.1476L30.6128 15.3663C30.7194 15.2686 30.8588 15.2144 31.0034 15.2144C31.148 15.2144 31.2874 15.2686 31.394 15.3663L32.9565 16.9288C33.0543 17.0355 33.1085 17.1748 33.1085 17.3195C33.1085 17.4641 33.0543 17.6035 32.9565 17.7101L32.1753 18.6866C32.3915 19.0846 32.5668 19.5034 32.6987 19.9366L33.9487 20.0538C34.0952 20.0674 34.2314 20.1348 34.331 20.2431C34.4306 20.3513 34.4865 20.4927 34.4878 20.6398V22.8038C34.4865 22.9509 34.4306 23.0923 34.331 23.2005C34.2314 23.3088 34.0952 23.3762 33.9487 23.3898L32.6987 23.507C32.5668 23.9402 32.3915 24.359 32.1753 24.757L32.9565 25.7335C33.0543 25.8401 33.1085 25.9795 33.1085 26.1241C33.1085 26.2688 33.0543 26.4082 32.9565 26.5148L31.3706 28.046C31.269 28.1492 31.1323 28.2105 30.9876 28.2177C30.8429 28.225 30.7008 28.1776 30.5894 28.0851L29.6128 27.3038C29.2143 27.5247 28.7925 27.7002 28.355 27.8273L28.2378 29.0929C28.2187 29.2365 28.1479 29.3681 28.0385 29.4631C27.9292 29.5581 27.7889 29.6098 27.644 29.6085ZM26.019 28.4366H27.1519L27.2222 27.2648C27.2332 27.1406 27.284 27.0233 27.367 26.9304C27.4501 26.8375 27.561 26.7739 27.6831 26.7491C28.2713 26.6189 28.8319 26.3862 29.3394 26.0616C29.4389 25.9881 29.5593 25.9483 29.6831 25.9483C29.8069 25.9483 29.9274 25.9881 30.0269 26.0616L30.9175 26.796L31.6987 26.0148L30.9644 25.1241C30.8908 25.0246 30.8511 24.9042 30.8511 24.7804C30.8511 24.6566 30.8908 24.5361 30.9644 24.4366C31.2903 23.9299 31.5231 23.369 31.6519 22.7804C31.6754 22.6577 31.7387 22.5461 31.8318 22.4628C31.925 22.3796 32.0429 22.3292 32.1675 22.3195L33.3081 22.2179V21.1476L32.1206 21.0148C31.996 21.005 31.8781 20.9547 31.7849 20.8714C31.6918 20.7881 31.6286 20.6765 31.605 20.5538C31.4748 19.9657 31.2421 19.405 30.9175 18.8976C30.8439 18.7981 30.8042 18.6776 30.8042 18.5538C30.8042 18.4301 30.8439 18.3096 30.9175 18.2101L31.6519 17.3195L30.8706 16.5382L29.98 17.2726C29.8805 17.3462 29.76 17.3859 29.6362 17.3859C29.5125 17.3859 29.392 17.3462 29.2925 17.2726C28.785 16.948 28.2244 16.7153 27.6362 16.5851C27.5141 16.5603 27.4032 16.4967 27.3202 16.4038C27.2371 16.3109 27.1863 16.1936 27.1753 16.0695L27.1519 14.9991H26.0581L25.9487 16.1554C25.9353 16.2808 25.8828 16.3987 25.7987 16.4927C25.7146 16.5866 25.6031 16.6517 25.48 16.6788C24.8967 16.801 24.3407 17.0287 23.8394 17.3507C23.7399 17.4243 23.6194 17.464 23.4956 17.464C23.3718 17.464 23.2514 17.4243 23.1519 17.3507L22.2612 16.6163L21.48 17.3976L22.2065 18.2804C22.2859 18.3757 22.3326 18.4939 22.3396 18.6177C22.3466 18.7415 22.3137 18.8643 22.2456 18.9679C21.9164 19.4758 21.6833 20.0398 21.5581 20.632C21.5322 20.7536 21.4682 20.8638 21.3756 20.9466C21.2829 21.0295 21.1662 21.0807 21.0425 21.0929L19.9019 21.1945V22.296L21.0425 22.3976C21.1662 22.4098 21.2829 22.461 21.3756 22.5439C21.4682 22.6267 21.5322 22.7369 21.5581 22.8585C21.6833 23.4507 21.9164 24.0147 22.2456 24.5226C22.3143 24.6274 22.3476 24.7515 22.3406 24.8767C22.3336 25.0018 22.2866 25.1214 22.2065 25.2179L21.48 26.0929L22.2612 26.8741L23.1519 26.1398C23.2514 26.0662 23.3718 26.0265 23.4956 26.0265C23.6194 26.0265 23.7399 26.0662 23.8394 26.1398C24.339 26.465 24.8957 26.693 25.48 26.8116C25.6031 26.8388 25.7146 26.9039 25.7987 26.9978C25.8828 27.0917 25.9353 27.2097 25.9487 27.3351L26.019 28.4366ZM26.5659 24.921C25.924 24.9226 25.2961 24.7335 24.7617 24.3779C24.2274 24.0222 23.8106 23.5159 23.5642 22.9232C23.3179 22.3304 23.253 21.6779 23.3778 21.0482C23.5027 20.4186 23.8116 19.8402 24.2655 19.3863C24.7194 18.9324 25.2979 18.6234 25.9275 18.4986C26.5572 18.3737 27.2097 18.4386 27.8024 18.6849C28.3952 18.9313 28.9015 19.3481 29.2571 19.8824C29.6128 20.4168 29.8018 21.0447 29.8003 21.6866C29.7982 22.5438 29.4568 23.3653 28.8507 23.9714C28.2446 24.5775 27.4231 24.919 26.5659 24.921ZM26.5659 19.6163C26.1561 19.6148 25.7551 19.7349 25.4136 19.9614C25.0721 20.188 24.8055 20.5108 24.6476 20.8889C24.4897 21.2671 24.4476 21.6836 24.5266 22.0857C24.6056 22.4878 24.8022 22.8575 25.0914 23.1478C25.3806 23.4381 25.7495 23.6361 26.1513 23.7166C26.5531 23.7971 26.9698 23.7566 27.3486 23.6001C27.7273 23.4436 28.0511 23.1783 28.279 22.8377C28.5068 22.497 28.6284 22.0964 28.6284 21.6866C28.6243 21.1416 28.4054 20.6202 28.0193 20.2355C27.6332 19.8509 27.1109 19.634 26.5659 19.632V19.6163Z" fill="#FFB629"/>
<path d="M39.0737 52.0694C38.9362 52.0682 38.8033 52.0192 38.6979 51.9308C38.5924 51.8425 38.521 51.7203 38.4956 51.5851C38.4956 51.5304 37.5816 46.3741 37.1362 42.2726C36.8081 39.2882 38.5737 36.3194 40.1441 34.0694C42.1987 31.1319 44.5503 27.1241 44.4331 22.2101C44.3631 18.1858 42.9123 14.3078 40.3237 11.2257C39.2522 9.97716 38.0079 8.88804 36.6284 7.99132C33.8634 6.21 30.6535 5.24134 27.3646 5.19576C24.0757 5.15018 20.8402 6.0295 18.0269 7.73351C13.0894 10.6241 9.91749 15.8976 9.26906 22.1866C9.11539 23.7053 8.57767 25.1598 7.70656 26.4132L5.36281 29.8116C5.20613 30.0338 5.1392 30.307 5.17542 30.5765C5.21164 30.846 5.34833 31.0918 5.55812 31.2648L6.90187 32.3976C7.29854 32.7335 7.56104 33.201 7.64137 33.7145C7.72171 34.2281 7.61451 34.7534 7.33937 35.1944L7.15968 35.4835L8.52687 36.2101C8.60165 36.2499 8.66691 36.3054 8.71816 36.3728C8.76941 36.4402 8.80543 36.518 8.82374 36.6007C8.84321 36.6845 8.84348 36.7715 8.82454 36.8554C8.8056 36.9393 8.76794 37.0178 8.71437 37.0851L7.77687 38.3116C8.29365 38.8568 8.64848 39.5351 8.80164 40.2705C8.9548 41.006 8.90023 41.7695 8.64406 42.4757C8.50617 42.8373 8.46321 43.2282 8.51928 43.6112C8.57535 43.9941 8.72859 44.3563 8.96437 44.6632C9.83937 45.6554 11.9409 45.9835 14.9019 45.5851C18.9175 45.046 20.2769 44.921 21.0269 45.5851C21.2283 45.7978 21.3803 46.0523 21.4722 46.3304C21.564 46.6086 21.5933 46.9036 21.5581 47.1944C21.5581 48.8819 21.6128 51.4757 21.6128 51.4757H20.4409C20.4409 51.4757 20.3862 48.8663 20.3862 47.1632C20.3862 46.8976 20.3862 46.5382 20.2612 46.4366C19.8472 46.0773 17.4097 46.4366 15.0581 46.7257C11.6519 47.1866 9.23781 46.7257 8.08156 45.4054C7.71623 44.9562 7.4726 44.4206 7.37409 43.8501C7.27558 43.2795 7.3255 42.6932 7.51906 42.1476C8.18312 39.7648 6.69874 38.9835 6.68312 38.9366C6.60834 38.8968 6.54308 38.8413 6.49183 38.7739C6.44058 38.7064 6.40455 38.6287 6.38624 38.546C6.36735 38.4622 6.36736 38.3753 6.38628 38.2915C6.4052 38.2077 6.44255 38.1292 6.49562 38.0616L7.37062 36.921L6.05812 36.2257C5.98736 36.1877 5.92516 36.1355 5.8754 36.0725C5.82564 36.0094 5.78938 35.9368 5.76887 35.8591C5.74835 35.7815 5.74402 35.7004 5.75615 35.621C5.76828 35.5416 5.79661 35.4656 5.83937 35.3976L6.35499 34.6163C6.48145 34.4148 6.53129 34.1746 6.49544 33.9394C6.45959 33.7042 6.34043 33.4897 6.15968 33.3351L4.80812 32.1632C4.37479 31.8027 4.09316 31.2921 4.01932 30.7333C3.94549 30.1744 4.08486 29.6083 4.40968 29.1476L6.75343 25.7491C7.4959 24.6524 7.95245 23.3875 8.08156 22.0694C8.76906 15.3976 12.1675 9.80382 17.4019 6.71007C20.4138 4.88674 23.8783 3.94831 27.3988 4.0022C30.9192 4.05608 34.3534 5.1001 37.3081 7.01476C38.7693 7.97222 40.0849 9.13521 41.2144 10.4679C43.9768 13.756 45.5267 17.8928 45.605 22.1866C45.73 27.4444 43.2612 31.6632 41.105 34.7491C39.6519 36.8351 37.98 39.5538 38.3003 42.1554C38.7456 46.2101 39.6519 51.3273 39.6519 51.3819C39.6653 51.4579 39.6637 51.5357 39.647 51.611C39.6304 51.6863 39.599 51.7576 39.5547 51.8207C39.5104 51.8839 39.4541 51.9377 39.389 51.979C39.3239 52.0203 39.2513 52.0484 39.1753 52.0616L39.0737 52.0694Z" fill="#C20046"/>
</svg>
