<svg width="20" height="20" viewBox="0 0 20 20" fill="none" xmlns="http://www.w3.org/2000/svg">
<g clip-path="url(#clip0_109_516)">
<path d="M10 0.15625C4.57812 0.15625 0.15625 4.57812 0.15625 10C0.15625 15.4219 4.57812 19.8438 10 19.8438C15.4219 19.8438 19.8438 15.4219 19.8438 10C19.8438 4.57812 15.4219 0.15625 10 0.15625ZM10 18.5938C5.26562 18.5938 1.40625 14.7344 1.40625 10C1.40625 5.26562 5.26562 1.40625 10 1.40625C14.7344 1.40625 18.5938 5.26562 18.5938 10C18.5938 14.7344 14.7344 18.5938 10 18.5938Z" fill="#570010"/>
<path d="M10.625 8.51562H9.375V14.7656H10.625V8.51562Z" fill="#570010"/>
<path d="M10.625 5.54688H9.375V6.79688H10.625V5.54688Z" fill="#570010"/>
</g>
<defs>
<clipPath id="clip0_109_516">
<rect width="20" height="20" fill="white"/>
</clipPath>
</defs>
</svg>
