<svg width="53" height="53" viewBox="0 0 53 53" fill="none" xmlns="http://www.w3.org/2000/svg">
<path d="M51.3438 33.9531C51.8009 33.9531 52.1719 33.583 52.1719 33.125V1.65625C52.1719 1.1983 51.8009 0.828125 51.3438 0.828125H1.65625C1.19913 0.828125 0.828125 1.1983 0.828125 1.65625V33.125C0.828125 33.583 1.19913 33.9531 1.65625 33.9531H15.4785L10.7946 51.126C10.7267 51.3744 10.7789 51.641 10.9354 51.8464C11.0927 52.051 11.3354 52.1719 11.5938 52.1719H14.9062C15.2797 52.1719 15.6068 51.9218 15.7054 51.5615L20.5077 33.9531H24.0156V51.3438C24.0156 51.8017 24.3866 52.1719 24.8438 52.1719H28.1562C28.6134 52.1719 28.9844 51.8017 28.9844 51.3438V33.9531H32.5279L35.2939 42.2501C32.701 42.4141 30.6406 44.5697 30.6406 47.2031C30.6406 49.9434 32.8691 52.1719 35.6094 52.1719H51.3438C51.6783 52.1719 51.9806 51.9706 52.1089 51.6609C52.2373 51.3512 52.1661 50.9951 51.9292 50.7583L49.203 48.0312C48.9811 47.8093 48.8594 47.5162 48.8594 47.2031C48.8594 46.8901 48.9811 46.5969 49.2022 46.375L51.9292 43.648C52.1661 43.4111 52.2373 43.055 52.1089 42.7453C51.9806 42.4356 51.6783 42.2344 51.3438 42.2344H40.3471L37.5869 33.9531H51.3438ZM2.48438 2.48438H50.5156V32.2969H2.48438V2.48438ZM14.2736 50.5156H12.6778L17.1952 33.9531H18.791L14.2736 50.5156ZM27.3281 50.5156H25.6719V33.9531H27.3281V50.5156ZM32.2969 47.2031C32.2969 45.3763 33.7825 43.8906 35.6094 43.8906V50.5156C33.7825 50.5156 32.2969 49.03 32.2969 47.2031ZM48.0312 45.204C47.4971 45.739 47.2031 46.4487 47.2031 47.2031C47.2031 47.9575 47.4971 48.6681 48.0312 49.2022L49.3447 50.5156H37.2656V48.0312H43.8906V46.375H37.2656V43.8906H39.75H49.3447L48.0312 45.204ZM38.6006 42.2344H37.0338L34.2736 33.9531H35.8404L38.6006 42.2344Z" fill="#C20046"/>
<path d="M48.0312 4.14062H4.96875C4.51163 4.14062 4.14062 4.5108 4.14062 4.96875V29.8125C4.14062 30.2705 4.51163 30.6406 4.96875 30.6406H48.0312C48.4884 30.6406 48.8594 30.2705 48.8594 29.8125V4.96875C48.8594 4.5108 48.4884 4.14062 48.0312 4.14062ZM42.2344 28.9844H37.2656V27.3281H42.2344V28.9844ZM47.2031 28.9844H43.8906V26.5C43.8906 26.042 43.5196 25.6719 43.0625 25.6719H36.4375C35.9804 25.6719 35.6094 26.042 35.6094 26.5V28.9844H5.79688V5.79688H47.2031V28.9844Z" fill="#C20046"/>
<path d="M12.585 24.626C12.6198 24.6028 12.6579 24.5987 12.6985 24.6127C12.7382 24.6293 12.7639 24.6575 12.7747 24.6989C12.9453 25.3804 13.4802 25.8856 14.1701 26.0164C14.8574 26.1472 15.5423 25.8748 15.9505 25.3026L17.9082 22.5615C17.919 22.5466 17.9538 22.4977 18.0233 22.5101C18.0954 22.5184 18.1177 22.5681 18.1244 22.5838L19.2498 25.2106C19.5073 25.8119 20.0721 26.2218 20.723 26.2814C21.3781 26.3369 22.005 26.0396 22.4033 25.4409C22.4248 25.4086 22.4563 25.3895 22.4952 25.387C22.5358 25.3821 22.5672 25.3953 22.5954 25.4226L23.6745 26.5017C24.2955 27.1236 25.2967 27.194 26.0015 26.6665L28.6531 24.6782L27.6594 23.3532L25.0077 25.3415C24.9572 25.3779 24.8885 25.3721 24.8454 25.3299L23.7672 24.2525C23.3888 23.8732 22.8637 23.6877 22.3337 23.7382C21.8004 23.7904 21.3234 24.0761 20.9897 24.578C20.9797 24.5929 20.9508 24.631 20.8746 24.6326C20.8009 24.6252 20.7785 24.5746 20.7719 24.5581L19.6465 21.9313C19.3889 21.3325 18.849 20.9334 18.2014 20.8638C17.5521 20.7918 16.941 21.0684 16.5609 21.5992L14.6023 24.3411C14.5899 24.3585 14.5568 24.404 14.479 24.3908C14.4011 24.3759 14.387 24.3196 14.3812 24.2989C14.2413 23.7374 13.8347 23.2786 13.2956 23.0699C12.7565 22.8612 12.1461 22.9283 11.6658 23.2496L7.82166 25.8127L8.74005 27.1907L12.585 24.626Z" fill="#C20046"/>
<path d="M27.3281 17.3906H8.28125V19.0469H27.3281V17.3906Z" fill="#C20046"/>
<path d="M27.3281 10.7656H8.28125V12.4219H27.3281V10.7656Z" fill="#C20046"/>
<path d="M27.3281 14.0781H8.28125V15.7344H27.3281V14.0781Z" fill="#C20046"/>
<path d="M31.4688 23.1875C31.5723 23.1875 31.6766 23.1685 31.7768 23.1287L35.9175 21.4725C36.021 21.4302 36.1162 21.3681 36.1949 21.2886L45.3043 12.1793C45.6281 11.8555 45.6281 11.3321 45.3043 11.0083L42.8199 8.52391C42.4961 8.20012 41.9727 8.20012 41.6489 8.52391L32.5395 17.6333C32.46 17.7128 32.3979 17.8072 32.3557 17.9115L30.6994 22.0522C30.5769 22.3594 30.6489 22.7105 30.8833 22.9449C31.0415 23.1031 31.2535 23.1875 31.4688 23.1875ZM36.4375 18.7041L35.1241 17.3906L39.75 12.7647L41.0634 14.0781L36.4375 18.7041ZM42.2344 10.2804L43.5478 11.5938L42.2344 12.9072L40.921 11.5938L42.2344 10.2804ZM33.8306 18.6842L33.9531 18.5616L35.2666 19.875L35.144 19.9976L32.9553 20.8737L33.8306 18.6842Z" fill="#C20046"/>
</svg>
