<svg width="55" height="54" viewBox="0 0 55 54" fill="none" xmlns="http://www.w3.org/2000/svg">
<g clip-path="url(#clip0_109_478)">
<path d="M53.4384 5.39819H16.1374C15.6516 5.39819 15.1658 5.83004 15.1658 6.36985V27.4765C15.1658 27.9623 15.5976 28.4482 16.1374 28.4482C16.6233 28.4482 17.1091 28.0163 17.1091 27.4765V7.34152H52.4668V29.2579H27.0416C26.5558 29.2579 26.07 29.6897 26.07 30.2295C26.07 30.7154 26.5018 31.2012 27.0416 31.2012H53.3845C53.8703 31.2012 54.3561 30.7694 54.3561 30.2295V6.36985C54.3561 5.83004 53.9782 5.39819 53.4384 5.39819Z" fill="#C20046"/>
<path d="M7.33869 27.0987C10.2007 27.0987 12.5209 24.7786 12.5209 21.9165C12.5209 19.0545 10.2007 16.7343 7.33869 16.7343C4.47664 16.7343 2.15649 19.0545 2.15649 21.9165C2.15649 24.7786 4.47664 27.0987 7.33869 27.0987Z" fill="#C20046"/>
<path d="M45.8811 42.3214C48.4152 42.3214 50.4695 40.2671 50.4695 37.733C50.4695 35.1989 48.4152 33.1446 45.8811 33.1446C43.347 33.1446 41.2927 35.1989 41.2927 37.733C41.2927 40.2671 43.347 42.3214 45.8811 42.3214Z" fill="#C20046"/>
<path d="M28.7151 42.3214C31.2492 42.3214 33.3035 40.2671 33.3035 37.733C33.3035 35.1989 31.2492 33.1446 28.7151 33.1446C26.181 33.1446 24.1267 35.1989 24.1267 37.733C24.1267 40.2671 26.181 42.3214 28.7151 42.3214Z" fill="#C20046"/>
<path d="M25.3143 26.9367L31.954 18.3537C32.1699 18.0838 32.1159 17.652 31.846 17.436C31.5761 17.2201 31.1443 17.2741 30.9284 17.544L24.3426 26.181C23.6949 25.9651 22.9931 26.073 22.4533 26.5049L18.0268 30.3375L9.01199 28.5022C8.90403 28.5022 8.74209 28.4482 8.63412 28.4482C8.25626 28.3942 7.82441 28.3402 7.39256 28.3402H7.28459C4.31563 28.3402 1.88647 30.3915 1.88647 32.9286V47.5575H12.7367V33.2525L18.1348 34.3321C18.2428 34.3321 18.3507 34.3861 18.5127 34.3861C18.9445 34.3861 19.4304 34.2242 19.7542 33.9543L24.8825 29.5278C25.6922 28.8261 25.8541 27.7464 25.3143 26.9367Z" fill="#C20046"/>
<path d="M45.9352 43.2931H45.8273C42.5884 43.2931 40.0513 45.1285 40.0513 47.3957V47.6116H51.8192V47.3957C51.7652 45.1285 49.1741 43.2931 45.9352 43.2931Z" fill="#C20046"/>
<path d="M28.7692 43.2931H28.6612C25.4224 43.2931 22.8853 45.1285 22.8853 47.3957V47.6116H34.6532V47.3957C34.5452 45.1285 31.9541 43.2931 28.7692 43.2931Z" fill="#C20046"/>
<path d="M47.7705 10.4723H24.5046C24.0188 10.4723 23.533 10.9041 23.533 11.444C23.533 11.9298 23.9648 12.4156 24.5046 12.4156H47.8245C48.3103 12.4156 48.7962 11.9838 48.7962 11.444C48.7962 10.9041 48.3643 10.4723 47.7705 10.4723Z" fill="#C20046"/>
<path d="M47.7703 17.328H35.9485C35.4626 17.328 34.9768 17.7599 34.9768 18.2997C34.9768 18.8395 35.4087 19.2713 35.9485 19.2713H47.8243C48.3102 19.2713 48.796 18.8395 48.796 18.2997C48.742 17.7059 48.3641 17.328 47.7703 17.328Z" fill="#C20046"/>
<path d="M47.7705 24.6156H33.1955C32.7097 24.6156 32.2239 25.0475 32.2239 25.5873C32.2239 26.0731 32.6557 26.5589 33.1955 26.5589H47.8784C48.3643 26.5589 48.8501 26.1271 48.8501 25.5873C48.7421 24.9935 48.3643 24.6156 47.7705 24.6156Z" fill="#C20046"/>
</g>
<defs>
<clipPath id="clip0_109_478">
<rect width="53.9812" height="53.9812" fill="white" transform="translate(0.96875)"/>
</clipPath>
</defs>
</svg>
