<svg width="38" height="51" viewBox="0 0 38 51" fill="none" xmlns="http://www.w3.org/2000/svg">
<path d="M16.3429 9.4129H20.6735C21.1522 9.4129 21.6113 9.60307 21.9498 9.94157C22.2883 10.2801 22.4785 10.7392 22.4785 11.2179V25.2706C22.4785 25.7493 22.2883 26.2084 21.9498 26.5469C21.6113 26.8854 21.1522 27.0755 20.6735 27.0755H16.3433C15.8645 27.0755 15.4053 26.8853 15.0667 26.5467C14.7281 26.2081 14.5378 25.7489 14.5378 25.27V11.2181C14.5378 10.981 14.5845 10.7463 14.6752 10.5273C14.7659 10.3082 14.8989 10.1092 15.0665 9.9416C15.2341 9.77397 15.4331 9.64101 15.6521 9.55029C15.8711 9.45958 16.1059 9.41289 16.3429 9.4129Z" fill="#C20046"/>
<path d="M29.2279 15.2433H33.5585C34.0372 15.2433 34.4963 15.4335 34.8348 15.772C35.1733 16.1105 35.3635 16.5696 35.3635 17.0483V25.2707C35.3635 25.7494 35.1733 26.2085 34.8348 26.547C34.4963 26.8855 34.0372 27.0757 33.5585 27.0757H29.2284C28.7495 27.0757 28.2903 26.8855 27.9517 26.5469C27.6131 26.2083 27.4229 25.7491 27.4229 25.2702V17.0484C27.4228 16.8113 27.4695 16.5766 27.5602 16.3576C27.6509 16.1386 27.7839 15.9396 27.9515 15.772C28.1191 15.6043 28.3181 15.4714 28.5371 15.3807C28.7562 15.29 28.9909 15.2433 29.2279 15.2433Z" fill="#C20046"/>
<path d="M3.45812 1.41852H7.78868C8.02571 1.41852 8.26043 1.46521 8.47942 1.55592C8.69841 1.64662 8.89739 1.77958 9.065 1.94719C9.23261 2.1148 9.36556 2.31378 9.45627 2.53277C9.54698 2.75176 9.59367 2.98648 9.59367 3.22351V25.1839C9.59367 25.4209 9.54698 25.6557 9.45627 25.8747C9.36556 26.0936 9.23261 26.2926 9.065 26.4602C8.89739 26.6278 8.69841 26.7608 8.47942 26.8515C8.26043 26.9422 8.02571 26.9889 7.78868 26.9889H3.45846C2.97961 26.9889 2.52037 26.7987 2.18177 26.4601C1.84318 26.1215 1.65295 25.6623 1.65295 25.1834V3.2236C1.65295 2.74488 1.84312 2.28578 2.18163 1.94727C2.52013 1.60877 2.9794 1.41852 3.45812 1.41852Z" fill="#C20046"/>
<path d="M33.0708 12.042C33.2527 12.0421 33.4327 12.006 33.6005 11.9357C33.7682 11.8655 33.9203 11.7626 34.0479 11.633C34.1755 11.5034 34.2759 11.3497 34.3435 11.1808C34.4111 11.012 34.4444 10.8314 34.4414 10.6496L34.3493 4.80443C34.3433 4.44491 34.1965 4.10209 33.9402 3.84981C33.684 3.59754 33.339 3.45599 32.9794 3.45566H32.9572C32.5936 3.46139 32.2472 3.6113 31.9941 3.87243C31.741 4.13356 31.602 4.48452 31.6077 4.84812L31.6464 7.30849L27.5894 3.25146C26.8426 2.50086 25.9544 1.9058 24.9761 1.5007C23.9978 1.0956 22.949 0.888498 21.8901 0.891387H14.9299C14.5664 0.891387 14.2178 1.03579 13.9608 1.29283C13.7037 1.54987 13.5593 1.89849 13.5593 2.262C13.5593 2.62551 13.7037 2.97413 13.9608 3.23118C14.2178 3.48822 14.5664 3.63262 14.9299 3.63262H21.8901C22.5889 3.63059 23.2811 3.76718 23.9266 4.03448C24.5722 4.30179 25.1583 4.69451 25.6511 5.18989L29.7555 9.29432L27.1477 9.28943H27.1453C26.7818 9.28909 26.433 9.43317 26.1758 9.68998C25.9185 9.94678 25.7737 10.2953 25.7734 10.6588C25.7731 11.0223 25.9172 11.371 26.174 11.6283C26.4308 11.8856 26.7793 12.0303 27.1428 12.0307L33.0684 12.0418L33.0708 12.042Z" fill="#C20046"/>
<path d="M5.96375 32.6128H1.03417C0.826131 32.6128 0.626612 32.6954 0.479506 32.8425C0.3324 32.9897 0.249756 33.1892 0.249756 33.3972V50.2208C0.249756 50.4288 0.3324 50.6283 0.479506 50.7754C0.626612 50.9226 0.826131 51.0052 1.03417 51.0052H5.96375C6.18825 51.0052 6.41056 50.961 6.61797 50.8751C6.82539 50.7891 7.01385 50.6632 7.17259 50.5045C7.33133 50.3457 7.45725 50.1572 7.54316 49.9498C7.62907 49.7424 7.67328 49.5201 7.67327 49.2956V34.3224C7.67327 33.869 7.49316 33.4342 7.17257 33.1136C6.85197 32.7929 6.41715 32.6128 5.96375 32.6128Z" fill="#C20046"/>
<path d="M37.1185 34.5386C36.8497 34.1287 36.483 33.7923 36.0515 33.5597C35.62 33.3272 35.1374 33.2059 34.6472 33.2067H32.7157C31.8686 33.2051 31.0403 33.4559 30.3363 33.9269C29.6322 34.398 29.0845 35.068 28.7628 35.8516C28.6295 36.1693 28.4579 36.4695 28.252 36.7457C27.7052 37.714 26.922 38.5279 25.9755 39.1116C25.029 39.6952 23.95 40.0295 22.8393 40.0833H17.1149C16.8178 40.076 16.5352 39.9529 16.3277 39.7402C16.1201 39.5275 16.0039 39.2421 16.0039 38.9449C16.0039 38.6477 16.1201 38.3623 16.3277 38.1496C16.5352 37.9369 16.8178 37.8138 17.1149 37.8066H22.8098C23.6636 37.7824 24.484 37.47 25.1377 36.9203C25.0703 35.9107 24.6207 34.9647 23.8804 34.2749C23.1401 33.5851 22.1648 33.2032 21.153 33.2071H16.9538C16.1742 33.2048 15.402 33.357 14.6816 33.6547C13.9611 33.9525 13.3068 34.3899 12.7563 34.9418L12.65 35.0472C11.9114 35.7862 10.9729 36.293 9.94995 36.5053V47.9257H25.1069C27.3952 47.9273 29.6338 47.2571 31.5448 45.9983C33.4559 44.7396 34.9555 42.9475 35.8576 40.8445L37.3657 37.3339C37.56 36.8841 37.6391 36.393 37.5959 35.905C37.5527 35.417 37.3887 34.9474 37.1185 34.5386Z" fill="#C20046"/>
</svg>
