<svg width="40" height="44" viewBox="0 0 40 44" fill="none" xmlns="http://www.w3.org/2000/svg">
<path d="M20.6271 34.2436C20.8489 34.2436 21.0287 34.0458 21.0287 33.8019C21.0287 33.5579 20.8489 33.3601 20.6271 33.3601C20.4053 33.3601 20.2255 33.5579 20.2255 33.8019C20.2255 34.0458 20.4053 34.2436 20.6271 34.2436Z" fill="#231F20"/>
<path d="M22.66 33.3601C22.5809 33.3601 22.5036 33.3859 22.4378 33.4343C22.372 33.4826 22.3207 33.5513 22.2905 33.6317C22.2602 33.7121 22.2523 33.8006 22.2677 33.8859C22.2831 33.9713 22.3212 34.0497 22.3772 34.1112C22.4331 34.1728 22.5044 34.2147 22.582 34.2317C22.6596 34.2486 22.74 34.2399 22.8131 34.2066C22.8862 34.1733 22.9486 34.1169 22.9926 34.0446C23.0365 33.9722 23.06 33.8871 23.06 33.8001C23.06 33.6834 23.0179 33.5715 22.9429 33.489C22.8678 33.4065 22.7661 33.3601 22.66 33.3601Z" fill="#231F20"/>
<path d="M24.6551 34.2436C24.8769 34.2436 25.0567 34.0458 25.0567 33.8019C25.0567 33.5579 24.8769 33.3601 24.6551 33.3601C24.4333 33.3601 24.2535 33.5579 24.2535 33.8019C24.2535 34.0458 24.4333 34.2436 24.6551 34.2436Z" fill="#231F20"/>
<path d="M16.3055 30.7051C15.8182 30.7062 15.3397 30.8466 14.9167 31.1125V28.0325C14.9167 27.9158 14.8745 27.8039 14.7995 27.7214C14.7245 27.6389 14.6227 27.5925 14.5167 27.5925H10.8999C10.8195 27.5926 10.741 27.6194 10.6746 27.6693C10.6082 27.7192 10.5571 27.7899 10.5278 27.8723C10.4985 27.9547 10.4925 28.0448 10.5105 28.131C10.5285 28.2172 10.5696 28.2954 10.6287 28.3555C10.8365 28.5626 11.0027 28.8154 11.1164 29.0974C11.23 29.3795 11.2887 29.6846 11.2887 29.9932C11.2887 30.5855 11.0747 31.1536 10.694 31.5724C10.3132 31.9913 9.79675 32.2266 9.25825 32.2266C8.71976 32.2266 8.20332 31.9913 7.82254 31.5724C7.44177 31.1536 7.22785 30.5855 7.22785 29.9932C7.22778 29.6846 7.28647 29.3795 7.40015 29.0974C7.51382 28.8154 7.67996 28.5626 7.88785 28.3555C7.94686 28.2954 7.98805 28.2172 8.00605 28.131C8.02404 28.0448 8.01801 27.9547 7.98873 27.8723C7.95945 27.7899 7.90829 27.7192 7.84192 27.6693C7.77555 27.6194 7.69705 27.5926 7.61665 27.5925H3.99985C3.89377 27.5925 3.79203 27.6389 3.71701 27.7214C3.642 27.8039 3.59985 27.9158 3.59985 28.0325V37.8401C3.59985 38.4236 3.81057 38.9832 4.18564 39.3958C4.56071 39.8083 5.06942 40.0401 5.59985 40.0401H14.5167C14.6227 40.0401 14.7245 39.9938 14.7995 39.9113C14.8745 39.8287 14.9167 39.7168 14.9167 39.6001V36.5201C15.2934 36.7542 15.714 36.8901 16.1461 36.9172C16.5781 36.9444 17.01 36.8621 17.4086 36.6768C17.8072 36.4914 18.1618 36.2079 18.4451 35.8481C18.7284 35.4883 18.9328 35.0618 19.0427 34.6014C19.1526 34.1409 19.165 33.6589 19.0788 33.1925C18.9927 32.726 18.8104 32.2874 18.546 31.9106C18.2816 31.5338 17.9421 31.2288 17.5537 31.019C17.1652 30.8093 16.7382 30.7004 16.3055 30.7007V30.7051Z" fill="#231F20"/>
<path d="M16.3055 36.0519C16.0238 36.052 15.7453 35.9868 15.4881 35.8605C15.2308 35.7342 15.0007 35.5496 14.8127 35.3189C14.7579 35.254 14.6868 35.2085 14.6084 35.1883C14.5301 35.1681 14.448 35.174 14.3727 35.2054C14.2974 35.2373 14.2327 35.2936 14.187 35.3668C14.1413 35.44 14.1168 35.5267 14.1167 35.6154V39.1601H5.5999C5.28164 39.1601 4.97642 39.021 4.75137 38.7735C4.52633 38.5259 4.3999 38.1902 4.3999 37.8401V28.4742H6.7911C6.55152 28.9376 6.42631 29.4618 6.4279 29.9949C6.4279 30.8206 6.7261 31.6125 7.25691 32.1964C7.78771 32.7803 8.50763 33.1083 9.2583 33.1083C10.009 33.1083 10.7289 32.7803 11.2597 32.1964C11.7905 31.6125 12.0887 30.8206 12.0887 29.9949C12.0903 29.4618 11.9651 28.9376 11.7255 28.4742H14.1167V32.0206C14.1166 32.1096 14.141 32.1965 14.1867 32.2698C14.2324 32.3432 14.2973 32.3996 14.3727 32.4316C14.448 32.463 14.5301 32.4689 14.6084 32.4487C14.6868 32.4285 14.7579 32.383 14.8127 32.3181C15.0007 32.0874 15.2308 31.9028 15.4881 31.7765C15.7453 31.6502 16.0238 31.585 16.3055 31.585C16.5721 31.585 16.8362 31.6428 17.0825 31.7551C17.3288 31.8673 17.5527 32.0318 17.7412 32.2392C17.9298 32.4466 18.0793 32.6928 18.1813 32.9638C18.2834 33.2348 18.3359 33.5252 18.3359 33.8185C18.3359 34.1118 18.2834 34.4022 18.1813 34.6732C18.0793 34.9442 17.9298 35.1904 17.7412 35.3978C17.5527 35.6052 17.3288 35.7697 17.0825 35.8819C16.8362 35.9942 16.5721 36.0519 16.3055 36.0519Z" fill="#0C4D8B"/>
<path d="M35.9999 27.5944H33.2047C33.4467 27.1293 33.5733 26.6025 33.5719 26.0667C33.5719 25.241 33.2737 24.449 32.7429 23.8652C32.2121 23.2813 31.4922 22.9532 30.7415 22.9532C29.9909 22.9532 29.2709 23.2813 28.7401 23.8652C28.2093 24.449 27.9111 25.241 27.9111 26.0667C27.9098 26.6025 28.0364 27.1293 28.2783 27.5944H25.4831C25.377 27.5944 25.2753 27.6407 25.2003 27.7232C25.1253 27.8058 25.0831 27.9177 25.0831 28.0344V32.0128C25.0832 32.1013 25.1075 32.1876 25.1529 32.2606C25.1983 32.3336 25.2626 32.3899 25.3375 32.4221C25.4123 32.4543 25.4943 32.461 25.5727 32.4412C25.651 32.4214 25.7221 32.3761 25.7767 32.3112C25.9649 32.0826 26.1945 31.8998 26.4508 31.7748C26.7071 31.6497 26.9844 31.5852 27.2647 31.5852C27.8032 31.5852 28.3197 31.8205 28.7004 32.2393C29.0812 32.6582 29.2951 33.2263 29.2951 33.8186C29.2951 34.411 29.0812 34.979 28.7004 35.3979C28.3197 35.8167 27.8032 36.052 27.2647 36.052C26.9844 36.0521 26.7071 35.9875 26.4508 35.8624C26.1945 35.7374 25.9649 35.5547 25.7767 35.326C25.7221 35.2611 25.651 35.2158 25.5727 35.196C25.4943 35.1762 25.4123 35.1829 25.3375 35.2151C25.2626 35.2473 25.1983 35.3036 25.1529 35.3766C25.1075 35.4496 25.0832 35.5359 25.0831 35.6244V39.6002C25.0831 39.7169 25.1253 39.8288 25.2003 39.9113C25.2753 39.9939 25.377 40.0402 25.4831 40.0402H34.3999C34.9304 40.0402 35.4391 39.8084 35.8141 39.3958C36.1892 38.9833 36.3999 38.4237 36.3999 37.8402V28.0344C36.3999 27.9177 36.3578 27.8058 36.2828 27.7232C36.2078 27.6407 36.106 27.5944 35.9999 27.5944Z" fill="#231F20"/>
<path d="M35.6 37.8403C35.6 38.1904 35.4736 38.5262 35.2485 38.7737C35.0235 39.0213 34.7182 39.1603 34.4 39.1603H25.8832V36.5291C26.3041 36.7928 26.7804 36.9309 27.2648 36.9295C27.6365 36.9295 28.0045 36.849 28.3479 36.6925C28.6913 36.5361 29.0033 36.3067 29.2662 36.0176C29.529 35.7285 29.7375 35.3853 29.8797 35.0076C30.022 34.6298 30.0952 34.225 30.0952 33.8161C30.0952 33.4072 30.022 33.0024 29.8797 32.6246C29.7375 32.2469 29.529 31.9037 29.2662 31.6146C29.0033 31.3254 28.6913 31.0961 28.3479 30.9397C28.0045 30.7832 27.6365 30.7027 27.2648 30.7027C26.7805 30.7015 26.3043 30.8392 25.8832 31.1022V28.4745H29.1072C29.1879 28.4746 29.2667 28.4479 29.3333 28.3978C29.3999 28.3478 29.4512 28.2767 29.4805 28.194C29.5097 28.1113 29.5155 28.0208 29.4972 27.9344C29.4788 27.8479 29.4371 27.7697 29.3776 27.7098C29.1678 27.5028 29 27.2495 28.8852 26.9664C28.7704 26.6833 28.7111 26.3768 28.7112 26.0668C28.7112 25.4745 28.9251 24.9064 29.3059 24.4875C29.6866 24.0687 30.2031 23.8334 30.7416 23.8334C31.2801 23.8334 31.7965 24.0687 32.1773 24.4875C32.5581 24.9064 32.772 25.4745 32.772 26.0668C32.7721 26.3768 32.7128 26.6833 32.5979 26.9664C32.4831 27.2495 32.3154 27.5028 32.1056 27.7098C32.0461 27.7696 32.0044 27.8478 31.986 27.9342C31.9677 28.0205 31.9734 28.1109 32.0026 28.1936C32.0317 28.2763 32.0829 28.3473 32.1494 28.3974C32.2159 28.4476 32.2946 28.4744 32.3752 28.4745H35.6V37.8403Z" fill="#C20046"/>
<path d="M23.1271 20.9019C23.1576 20.1063 23.4559 19.3517 23.9639 18.7846C24.4782 18.1872 24.8754 17.4798 25.1305 16.7063C25.3857 15.9329 25.4934 15.11 25.447 14.2888C25.4007 13.4676 25.2012 12.6657 24.861 11.9329C24.5207 11.2001 24.0471 10.5522 23.4695 10.0295C22.8413 9.46209 22.1062 9.05541 21.3176 8.83884C20.529 8.62226 19.7064 8.60122 18.9095 8.77721C17.9559 8.9907 17.0716 9.4809 16.3482 10.197C15.6248 10.9131 15.0888 11.829 14.7956 12.8497C14.5025 13.8705 14.4629 14.9589 14.681 16.0021C14.8991 17.0454 15.3669 18.0054 16.0359 18.7828C16.5442 19.3507 16.8429 20.1057 16.8743 20.9019C16.631 20.933 16.4064 21.0607 16.2427 21.2612C16.079 21.4617 15.9876 21.721 15.9855 21.9904V22.8079C15.9859 23.1042 16.0931 23.3882 16.2835 23.5977C16.474 23.8072 16.7322 23.9251 17.0015 23.9255H17.0815C17.1456 24.7298 17.4813 25.4784 18.0224 26.0237C18.5635 26.5691 19.2708 26.8716 20.0047 26.8716C20.7386 26.8716 21.4459 26.5691 21.987 26.0237C22.5281 25.4784 22.8638 24.7298 22.9279 23.9255H23.0079C23.2772 23.9251 23.5354 23.8072 23.7258 23.5977C23.9163 23.3882 24.0235 23.1042 24.0239 22.8079V21.9904C24.0216 21.7196 23.929 21.4592 23.7637 21.2585C23.5984 21.0579 23.3719 20.931 23.1271 20.9019Z" fill="#231F20"/>
<path d="M15.416 13.738C15.5782 12.731 16.0129 11.8012 16.6632 11.0702C17.3134 10.3392 18.149 9.84102 19.0608 9.6407C19.742 9.49041 20.4451 9.5082 21.1193 9.69278C21.7936 9.87736 22.4222 10.2241 22.96 10.7081C23.453 11.1542 23.8572 11.707 24.1476 12.3323C24.438 12.9576 24.6083 13.6419 24.648 14.3427C24.6876 15.0435 24.5957 15.7458 24.3779 16.4058C24.1602 17.0659 23.8213 17.6696 23.3824 18.1793C22.7401 18.9028 22.3647 19.8626 22.3288 20.873H21.4944V17.0635H21.7848C22.0747 17.064 22.3529 16.9378 22.5582 16.7127C22.7636 16.4876 22.8793 16.1821 22.88 15.8632V15.7523C22.88 15.434 22.765 15.1286 22.5603 14.9035C22.3557 14.6784 22.0782 14.552 21.7888 14.552C21.4993 14.552 21.2218 14.6784 21.0172 14.9035C20.8125 15.1286 20.6976 15.434 20.6976 15.7523V16.1844H19.3056V15.7523C19.3056 15.434 19.1906 15.1286 18.9859 14.9035C18.7813 14.6784 18.5038 14.552 18.2144 14.552C17.9249 14.552 17.6474 14.6784 17.4428 14.9035C17.2381 15.1286 17.1232 15.434 17.1232 15.7523V15.8641C17.1238 16.1823 17.2391 16.4874 17.4437 16.7124C17.6484 16.9373 17.9258 17.0639 18.2152 17.0644H18.5056V20.8739H17.6704C17.6339 19.8629 17.2583 18.9027 16.616 18.1785C16.112 17.5946 15.7407 16.8881 15.5322 16.1164C15.3236 15.3447 15.2838 14.5298 15.416 13.738Z" fill="#FFB629"/>
<path d="M18.5055 16.1833H18.2151C18.1768 16.1834 18.1388 16.1752 18.1034 16.1592C18.068 16.1431 18.0358 16.1195 18.0087 16.0898C17.9815 16.06 17.96 16.0247 17.9453 15.9857C17.9307 15.9468 17.9231 15.9051 17.9231 15.863V15.7521C17.9231 15.6671 17.9538 15.5857 18.0084 15.5256C18.063 15.4655 18.1371 15.4318 18.2143 15.4318C18.2915 15.4318 18.3656 15.4655 18.4202 15.5256C18.4748 15.5857 18.5055 15.6671 18.5055 15.7521V16.1833Z" fill="#FFBA50"/>
<path d="M20.6943 17.0635H19.3055V20.8739H20.6943V17.0635Z" fill="#FFBA50"/>
<path d="M21.4943 16.1833V15.7521C21.4943 15.6671 21.5249 15.5857 21.5796 15.5256C21.6342 15.4655 21.7082 15.4318 21.7855 15.4318C21.8627 15.4318 21.9368 15.4655 21.9914 15.5256C22.046 15.5857 22.0767 15.6671 22.0767 15.7521V15.8638C22.0767 15.906 22.0691 15.9477 22.0544 15.9866C22.0397 16.0255 22.0182 16.0609 21.9911 16.0907C21.964 16.1204 21.9318 16.144 21.8963 16.16C21.8609 16.1761 21.823 16.1843 21.7847 16.1842L21.4943 16.1833Z" fill="#FFBA50"/>
<path d="M19.9999 25.9927C19.478 25.9909 18.9746 25.7801 18.5838 25.3996C18.1931 25.0192 17.9417 24.4951 17.8767 23.9255H22.1231C22.0581 24.4951 21.8068 25.0192 21.416 25.3996C21.0252 25.7801 20.5218 25.9909 19.9999 25.9927Z" fill="#8D7F89"/>
<path d="M22.9991 21.7528H16.9999C16.8806 21.7528 16.7839 21.8592 16.7839 21.9904V22.807C16.7839 22.9383 16.8806 23.0446 16.9999 23.0446H22.9991C23.1184 23.0446 23.2151 22.9383 23.2151 22.807V21.9904C23.2151 21.8592 23.1184 21.7528 22.9991 21.7528Z" fill="#8D7F89"/>
<path d="M20 7.93869C20.1061 7.93869 20.2078 7.89233 20.2828 7.80981C20.3578 7.7273 20.4 7.61538 20.4 7.49869V4.40021C20.4 4.28351 20.3578 4.17159 20.2828 4.08908C20.2078 4.00656 20.1061 3.96021 20 3.96021C19.8939 3.96021 19.7921 4.00656 19.7171 4.08908C19.6421 4.17159 19.6 4.28351 19.6 4.40021V7.49869C19.6 7.61538 19.6421 7.7273 19.7171 7.80981C19.7921 7.89233 19.8939 7.93869 20 7.93869Z" fill="#231F20"/>
<path d="M26.4087 14.9883C26.4087 15.105 26.4508 15.217 26.5258 15.2995C26.6009 15.382 26.7026 15.4283 26.8087 15.4283H29.6279C29.734 15.4283 29.8357 15.382 29.9107 15.2995C29.9857 15.217 30.0279 15.105 30.0279 14.9883C30.0279 14.8716 29.9857 14.7597 29.9107 14.6772C29.8357 14.5947 29.734 14.5483 29.6279 14.5483H26.8087C26.7026 14.5483 26.6009 14.5947 26.5258 14.6772C26.4508 14.7597 26.4087 14.8716 26.4087 14.9883Z" fill="#231F20"/>
<path d="M10.3719 15.4283H13.1911C13.2972 15.4283 13.399 15.382 13.474 15.2995C13.549 15.217 13.5911 15.105 13.5911 14.9883C13.5911 14.8716 13.549 14.7597 13.474 14.6772C13.399 14.5947 13.2972 14.5483 13.1911 14.5483H10.3719C10.2658 14.5483 10.1641 14.5947 10.0891 14.6772C10.0141 14.7597 9.97192 14.8716 9.97192 14.9883C9.97192 15.105 10.0141 15.217 10.0891 15.2995C10.1641 15.382 10.2658 15.4283 10.3719 15.4283Z" fill="#231F20"/>
<path d="M16.2496 8.72179C16.3027 8.82261 16.3899 8.89618 16.4922 8.92637C16.5944 8.95656 16.7034 8.9409 16.7952 8.88283C16.8871 8.82449 16.9541 8.72838 16.9816 8.61567C17.009 8.50295 16.9947 8.38285 16.9416 8.28179L15.532 5.59603C15.507 5.54345 15.4726 5.49698 15.4308 5.45941C15.3891 5.42183 15.3408 5.39394 15.289 5.37741C15.2372 5.36088 15.1829 5.35604 15.1294 5.3632C15.0758 5.37035 15.0241 5.38935 14.9774 5.41905C14.9307 5.44874 14.8899 5.48853 14.8576 5.536C14.8252 5.58348 14.8019 5.63767 14.7891 5.6953C14.7762 5.75294 14.7741 5.81284 14.7829 5.8714C14.7916 5.92995 14.8111 5.98595 14.84 6.03603L16.2496 8.72179Z" fill="#231F20"/>
<path d="M25.8967 11.6839C25.9669 11.6839 26.0359 11.6636 26.0967 11.625L28.5383 10.0744C28.5838 10.0455 28.6238 10.007 28.6558 9.96119C28.6878 9.91532 28.7113 9.86297 28.7249 9.80712C28.7386 9.75127 28.7421 9.69301 28.7352 9.63567C28.7284 9.57833 28.7114 9.52303 28.6851 9.47293C28.6588 9.42284 28.6238 9.37892 28.5822 9.34369C28.5405 9.30847 28.4929 9.28262 28.4421 9.26762C28.3913 9.25263 28.3384 9.24878 28.2862 9.2563C28.2341 9.26382 28.1838 9.28256 28.1383 9.31145L25.6967 10.8629C25.6204 10.9113 25.5608 10.9861 25.5271 11.0756C25.4935 11.165 25.4875 11.2643 25.5103 11.3578C25.5331 11.4514 25.5833 11.534 25.6532 11.593C25.723 11.652 25.8086 11.6839 25.8967 11.6839Z" fill="#231F20"/>
<path d="M13.9032 18.3518L11.4616 19.9024C11.3696 19.9607 11.3025 20.0569 11.2749 20.1697C11.2474 20.2825 11.2617 20.4027 11.3148 20.5038C11.3678 20.605 11.4552 20.6789 11.5578 20.7092C11.6603 20.7394 11.7696 20.7237 11.8616 20.6653L14.3032 19.1139C14.349 19.0852 14.3893 19.0468 14.4216 19.001C14.4539 18.9551 14.4777 18.9027 14.4915 18.8467C14.5053 18.7907 14.5089 18.7322 14.5021 18.6747C14.4953 18.6171 14.4783 18.5616 14.4519 18.5114C14.4255 18.4611 14.3903 18.4171 14.3484 18.3819C14.3065 18.3466 14.2587 18.3208 14.2077 18.306C14.1567 18.2912 14.1035 18.2876 14.0513 18.2954C13.999 18.3033 13.9487 18.3225 13.9032 18.3518Z" fill="#231F20"/>
<path d="M11.4616 10.0744L13.9032 11.625C13.9487 11.6543 13.999 11.6735 14.0513 11.6813C14.1035 11.6892 14.1567 11.6856 14.2077 11.6708C14.2587 11.6559 14.3065 11.6302 14.3484 11.5949C14.3903 11.5597 14.4255 11.5157 14.4519 11.4654C14.4783 11.4151 14.4953 11.3597 14.5021 11.3021C14.5089 11.2446 14.5053 11.1861 14.4915 11.1301C14.4777 11.0741 14.4539 11.0217 14.4216 10.9758C14.3893 10.93 14.349 10.8916 14.3032 10.8629L11.8616 9.31146C11.7696 9.25311 11.6603 9.23734 11.5578 9.26763C11.4552 9.29791 11.3678 9.37176 11.3148 9.47294C11.2617 9.57411 11.2474 9.69432 11.2749 9.80712C11.3025 9.91992 11.3696 10.0161 11.4616 10.0744Z" fill="#231F20"/>
<path d="M25.6967 19.1139L28.1383 20.6653C28.1991 20.7039 28.2681 20.7243 28.3383 20.7243C28.4266 20.7246 28.5125 20.6928 28.5827 20.6338C28.6528 20.5748 28.7032 20.4919 28.7261 20.3981C28.7489 20.3042 28.7429 20.2047 28.7089 20.115C28.6749 20.0254 28.6149 19.9506 28.5383 19.9024L26.0967 18.3518C26.0512 18.3225 26.0008 18.3033 25.9486 18.2954C25.8963 18.2876 25.8431 18.2912 25.7921 18.306C25.7411 18.3208 25.6933 18.3466 25.6514 18.3819C25.6095 18.4171 25.5744 18.4611 25.548 18.5114C25.5216 18.5616 25.5045 18.6171 25.4977 18.6747C25.4909 18.7322 25.4945 18.7907 25.5084 18.8467C25.5222 18.9027 25.5459 18.9551 25.5783 19.001C25.6106 19.0468 25.6508 19.0852 25.6967 19.1139Z" fill="#231F20"/>
<path d="M23.2048 8.88283C23.2965 8.9409 23.4055 8.95656 23.5078 8.92637C23.6101 8.89618 23.6973 8.82261 23.7503 8.72179L25.16 6.03603C25.1889 5.98595 25.2083 5.92995 25.2171 5.8714C25.2258 5.81284 25.2237 5.75294 25.2109 5.6953C25.1981 5.63767 25.1748 5.58348 25.1424 5.536C25.11 5.48853 25.0693 5.44874 25.0226 5.41905C24.9759 5.38935 24.9242 5.37035 24.8706 5.3632C24.8171 5.35604 24.7627 5.36088 24.7109 5.37741C24.6591 5.39394 24.6109 5.42183 24.5691 5.45941C24.5274 5.49698 24.493 5.54345 24.4679 5.59603L23.0583 8.28179C23.0053 8.38285 22.9909 8.50295 23.0184 8.61567C23.0458 8.72838 23.1129 8.82449 23.2048 8.88283Z" fill="#231F20"/>
</svg>
