<svg width="77" height="67" viewBox="0 0 77 67" fill="none" xmlns="http://www.w3.org/2000/svg">
<path d="M31.5366 2.69356L24.1698 13.5514C24.0574 13.7171 23.9973 13.9127 23.9973 14.1129V56.8255C23.9973 57.8035 25.2563 58.2 25.8168 57.3987L33.1835 46.8663C33.3011 46.6983 33.3641 46.4982 33.3641 46.2931V3.25501C33.3641 2.2698 32.0897 1.87829 31.5366 2.69356Z" fill="#570010"/>
<path d="M45.4999 41.1536H37.223C36.6707 41.1536 36.223 40.7059 36.223 40.1536V25.776C36.223 25.671 36.2387 25.5681 36.2725 25.4687C37.1337 22.9357 39.5497 18.6002 42.8437 18.5455C45.7119 18.4978 47.6754 19.3954 48.4863 20.0125C49.2011 20.6395 50.7735 22.6382 51.3453 25.6176C52.06 29.3417 51.9095 29.6426 52.06 31.373C52.2097 33.0942 51.2057 40.0627 45.6795 41.1368C45.6208 41.1482 45.5597 41.1536 45.4999 41.1536Z" fill="#570010"/>
<path d="M21.0631 38.6708V57.8715C21.0631 58.4238 20.6153 58.8715 20.0631 58.8715H8.55736C8.4195 58.8715 8.28385 58.844 8.15869 58.7862C5.79978 57.6969 1.23942 54.5627 0.448645 49.9937C-0.363894 45.2991 0.110087 39.6364 0.448645 37.3919C1.16338 34.2696 4.31573 28.0251 11.2073 28.0251C18.0988 28.0251 20.6493 35.1223 21.0631 38.6708Z" fill="#C20046"/>
<path d="M76.5865 38.6332V57.8339C76.5865 58.3861 76.1388 58.8339 75.5865 58.8339H64.0808C63.9429 58.8339 63.8073 58.8064 63.6821 58.7486C61.3232 57.6593 56.7629 54.525 55.9721 49.9561C55.1595 45.2614 55.6335 39.5988 55.9721 37.3542C56.6868 34.232 59.8392 27.9875 66.7307 27.9875C73.6222 27.9875 76.1727 35.0846 76.5865 38.6332Z" fill="#C20046"/>
<path d="M49.6662 45.1411H38.0924C37.3178 45.1411 36.8373 45.9837 37.2318 46.6503L44.1736 58.3808C44.3536 58.6849 44.6808 58.8715 45.0342 58.8715H56.126C56.8868 58.8715 57.3689 58.0556 57.0019 57.3891L50.5422 45.6587C50.3663 45.3394 50.0307 45.1411 49.6662 45.1411Z" fill="#570010"/>
<path d="M72.0547 25.1636C70.1416 23.6353 67.7448 23.7133 66.0791 24.1463C65.4428 24.3117 64.7404 23.9428 64.6274 23.2951C64.4255 22.1389 64.1943 20.7995 64.0609 19.9835C63.9886 19.5417 64.2449 19.1499 64.6819 19.0526C67.7891 18.3603 73.2075 18.1873 75.3478 21.9177C75.5258 22.2281 75.4821 22.6128 75.2727 22.9029L73.7412 25.0251C73.3562 25.5586 72.5687 25.5742 72.0547 25.1636Z" fill="#C20046"/>
<path d="M6.11545 65.4735H5.06238C5.01579 65.4735 4.99715 65.4874 4.97851 65.534L4.83872 65.9068C4.81077 65.9767 4.71757 66 4.45664 66C4.17706 66 4.09785 65.9767 4.09785 65.9254C4.09785 65.8882 4.11183 65.8602 4.13047 65.8043L5.18353 63.0132C5.22547 62.8967 5.32332 62.8641 5.58892 62.8641C5.85451 62.8641 5.95236 62.8967 5.9943 63.0132L7.05202 65.8043C7.07066 65.8602 7.08464 65.8882 7.08464 65.9254C7.08464 65.9767 7.00077 66 6.72119 66C6.46026 66 6.36706 65.9767 6.33911 65.9068L6.19932 65.534C6.18068 65.4874 6.16204 65.4735 6.11545 65.4735ZM5.25809 64.9376H5.91974C5.96634 64.9376 5.98498 64.919 5.98498 64.877L5.64483 63.8846C5.63551 63.8566 5.62153 63.8193 5.58892 63.8193C5.5563 63.8193 5.54232 63.8566 5.533 63.8846L5.19285 64.877C5.19285 64.919 5.21149 64.9376 5.25809 64.9376ZM7.8052 66C7.52096 66 7.46039 65.9441 7.46039 65.8882V62.7569C7.46039 62.6964 7.52096 62.6451 7.8052 62.6451C8.08477 62.6451 8.15001 62.6964 8.15001 62.7569V64.4717C8.45754 64.3691 8.74177 64.029 8.88622 63.7075C8.90952 63.6562 8.92816 63.6236 8.98407 63.6236H9.45469C9.50594 63.6236 9.5339 63.6469 9.5339 63.6889C9.5339 63.7215 9.51992 63.7634 9.49196 63.824C9.35684 64.1082 9.10522 64.4996 8.80701 64.7046C8.98873 64.8071 9.11454 65.0122 9.32422 65.3849C9.40809 65.534 9.46867 65.5713 9.59913 65.5713H9.69699C9.73426 65.5713 9.75756 65.59 9.75756 65.6319C9.75756 65.7344 9.45003 66.0466 9.22637 66.0466C9.04464 66.0466 8.9235 65.9674 8.84428 65.8323C8.54607 65.3104 8.41094 65.0634 8.31309 65.0215C8.27581 65.0308 8.15467 65.0727 8.15001 65.0774V65.8882C8.15001 65.9441 8.08477 66 7.8052 66ZM10.6031 63.3114C10.5751 63.3301 10.5565 63.3394 10.5285 63.3394C10.4586 63.3394 10.2815 63.0971 10.2815 63.0551C10.2815 63.0272 10.2955 62.9899 10.3328 62.9433C10.4353 62.8222 10.6217 62.7103 10.8267 62.7103C11.0783 62.7103 11.3206 62.9154 11.4651 62.9154C11.5489 62.9154 11.6375 62.8175 11.6794 62.7709C11.6981 62.7523 11.7074 62.7383 11.7353 62.7383C11.8006 62.7383 12.0009 62.9713 12.0009 63.0272C12.0009 63.125 11.7959 63.3627 11.507 63.3627C11.2321 63.3627 11.0271 63.1577 10.836 63.1577C10.7661 63.1577 10.6916 63.2369 10.6031 63.3114ZM11.9031 66.0466C11.6282 66.0466 11.4558 65.809 11.4558 65.809C11.2834 65.9301 11.055 66.0466 10.7428 66.0466C10.2955 66.0466 9.96469 65.7996 9.96469 65.3616C9.96469 64.8211 10.3328 64.6301 11.0084 64.4717C11.2321 64.4204 11.3439 64.3785 11.3439 64.3086C11.3439 64.1734 11.2228 64.0803 10.9618 64.0803C10.5984 64.0803 10.3095 64.2946 10.2349 64.2946C10.193 64.2946 10.1744 64.2713 10.1744 64.2247C10.1744 64.1501 10.207 63.9917 10.2722 63.838C10.3188 63.7354 10.6543 63.577 11.0597 63.577C11.7726 63.577 12.0429 63.8892 12.0429 64.5136V65.3616C12.0429 65.5061 12.1128 65.562 12.2246 65.562H12.3178C12.3644 65.562 12.383 65.5853 12.383 65.6226C12.383 65.7344 12.1267 66.0466 11.9031 66.0466ZM10.6357 65.2731C10.6357 65.4735 10.7894 65.576 11.0038 65.576C11.2088 65.576 11.3532 65.4502 11.3532 65.3616V64.8631C11.3532 64.8351 11.3393 64.8118 11.302 64.8118C11.2414 64.8118 11.1482 64.8351 11.0457 64.8817C10.85 64.9516 10.6357 65.0588 10.6357 65.2731ZM13.1901 66.0419C12.9339 66.0419 12.8127 65.9161 12.8127 65.6505C12.8127 65.3849 12.9339 65.2545 13.1901 65.2545C13.4464 65.2545 13.5815 65.3849 13.5815 65.6505C13.5815 65.9161 13.4557 66.0419 13.1901 66.0419ZM16.7716 65.3953H15.5663C15.5456 65.3953 15.5415 65.3994 15.5332 65.4201L15.3344 65.9379C15.3178 65.9876 15.2847 66 15.1314 66C14.9657 66 14.945 65.9793 14.9492 65.9462L15.9556 63.3078C15.9763 63.2415 16.0219 63.225 16.171 63.225C16.3201 63.225 16.3657 63.2415 16.3905 63.3078L17.397 65.9462C17.4011 65.9793 17.3763 66 17.2106 66C17.0615 66 17.0284 65.9876 17.0077 65.9379L16.8089 65.4201C16.8006 65.3994 16.7923 65.3953 16.7716 65.3953ZM15.6864 65.0971H16.6556C16.6763 65.0971 16.6887 65.0722 16.6805 65.0515L16.1959 63.7675C16.1917 63.7551 16.1876 63.7386 16.171 63.7386C16.1586 63.7386 16.1503 63.7551 16.1462 63.7675L15.6616 65.0557C15.6574 65.0722 15.6657 65.0971 15.6864 65.0971ZM18.5126 66.0331C18.0197 66.0331 17.6884 65.7432 17.6884 65.6728C17.6884 65.6148 17.8167 65.4823 17.8623 65.4823C17.9203 65.4823 18.1232 65.7598 18.5167 65.7598C18.7652 65.7598 18.9268 65.6397 18.9268 65.4326C18.9268 65.2006 18.699 65.1302 18.4463 65.0557C18.1232 64.9604 17.7505 64.8651 17.7505 64.4758C17.7505 64.0865 18.086 63.8545 18.5499 63.8545C19.0096 63.8545 19.2001 64.0616 19.2001 64.1237C19.2001 64.1859 19.0842 64.3184 19.0303 64.3184C18.9847 64.3184 18.8646 64.1155 18.525 64.1155C18.2806 64.1155 18.1025 64.2314 18.1025 64.4302C18.1025 64.6498 18.3262 64.7077 18.5747 64.774C18.9019 64.861 19.2788 64.9604 19.2788 65.387C19.2788 65.7722 18.9475 66.0331 18.5126 66.0331ZM20.4338 66.0331C19.941 66.0331 19.6096 65.7432 19.6096 65.6728C19.6096 65.6148 19.738 65.4823 19.7836 65.4823C19.8416 65.4823 20.0445 65.7598 20.438 65.7598C20.6865 65.7598 20.848 65.6397 20.848 65.4326C20.848 65.2006 20.6202 65.1302 20.3676 65.0557C20.0445 64.9604 19.6717 64.8651 19.6717 64.4758C19.6717 64.0865 20.0072 63.8545 20.4711 63.8545C20.9309 63.8545 21.1214 64.0616 21.1214 64.1237C21.1214 64.1859 21.0054 64.3184 20.9516 64.3184C20.906 64.3184 20.7859 64.1155 20.4463 64.1155C20.2019 64.1155 20.0238 64.2314 20.0238 64.4302C20.0238 64.6498 20.2475 64.7077 20.496 64.774C20.8232 64.861 21.2001 64.9604 21.2001 65.387C21.2001 65.7722 20.8687 66.0331 20.4338 66.0331ZM22.5912 66.0331C22.0693 66.0331 21.5723 65.7473 21.5723 65.0308C21.5723 64.1983 22.1066 63.8545 22.5871 63.8545C23.0634 63.8545 23.3077 64.103 23.3077 64.4178C23.3077 64.9977 22.5208 65.2089 21.9782 65.242C22.0486 65.5817 22.322 65.7391 22.6285 65.7391C22.9722 65.7391 23.1296 65.5858 23.2042 65.5568C23.2456 65.5361 23.2746 65.5444 23.2746 65.5858C23.2746 65.6521 23.2497 65.7308 23.2083 65.8095C23.1545 65.8757 22.9143 66.0331 22.5912 66.0331ZM22.5995 64.103C22.2888 64.103 21.9658 64.3433 21.9575 65.0225C22.3924 64.9935 22.9474 64.8196 22.9474 64.4012C22.9474 64.2273 22.8149 64.103 22.5995 64.103ZM24.4746 66.0331C23.9817 66.0331 23.6503 65.7432 23.6503 65.6728C23.6503 65.6148 23.7787 65.4823 23.8243 65.4823C23.8823 65.4823 24.0852 65.7598 24.4787 65.7598C24.7272 65.7598 24.8888 65.6397 24.8888 65.4326C24.8888 65.2006 24.661 65.1302 24.4083 65.0557C24.0852 64.9604 23.7125 64.8651 23.7125 64.4758C23.7125 64.0865 24.048 63.8545 24.5118 63.8545C24.9716 63.8545 25.1621 64.0616 25.1621 64.1237C25.1621 64.1859 25.0461 64.3184 24.9923 64.3184C24.9467 64.3184 24.8266 64.1155 24.487 64.1155C24.2426 64.1155 24.0645 64.2314 24.0645 64.4302C24.0645 64.6498 24.2882 64.7077 24.5367 64.774C24.8639 64.861 25.2408 64.9604 25.2408 65.387C25.2408 65.7722 24.9095 66.0331 24.4746 66.0331ZM26.3958 66.0331C25.903 66.0331 25.5716 65.7432 25.5716 65.6728C25.5716 65.6148 25.7 65.4823 25.7456 65.4823C25.8035 65.4823 26.0065 65.7598 26.4 65.7598C26.6485 65.7598 26.81 65.6397 26.81 65.4326C26.81 65.2006 26.5822 65.1302 26.3296 65.0557C26.0065 64.9604 25.6337 64.8651 25.6337 64.4758C25.6337 64.0865 25.9692 63.8545 26.4331 63.8545C26.8929 63.8545 27.0834 64.0616 27.0834 64.1237C27.0834 64.1859 26.9674 64.3184 26.9136 64.3184C26.868 64.3184 26.7479 64.1155 26.4083 64.1155C26.1639 64.1155 25.9858 64.2314 25.9858 64.4302C25.9858 64.6498 26.2094 64.7077 26.458 64.774C26.7852 64.861 27.1621 64.9604 27.1621 65.387C27.1621 65.7722 26.8307 66.0331 26.3958 66.0331ZM28.4993 66.0331C28.0023 66.0331 27.5136 65.7184 27.5136 64.9355C27.5136 64.1569 28.0023 63.8545 28.4993 63.8545C28.9922 63.8545 29.481 64.1569 29.481 64.9355C29.481 65.7184 28.9922 66.0331 28.4993 66.0331ZM28.4993 65.7598C28.8058 65.7598 29.104 65.5485 29.104 64.9314C29.104 64.3101 28.8058 64.1113 28.4993 64.1113C28.197 64.1113 27.8946 64.3101 27.8946 64.9314C27.8946 65.5485 28.197 65.7598 28.4993 65.7598ZM30.1308 66C29.9858 66 29.9568 65.9751 29.9568 65.9379V64.3681C29.9568 64.1362 29.8285 64.0948 29.8285 64.045C29.8285 63.9912 30.019 63.867 30.0935 63.867C30.1847 63.867 30.2716 63.9746 30.3048 64.1817C30.3048 64.1817 30.5243 63.8545 30.8598 63.8545C31.0669 63.8545 31.2243 63.9456 31.2243 64.0078C31.2243 64.0492 31.1497 64.1693 31.0959 64.2273C31.071 64.2521 31.0544 64.2646 31.0337 64.2646C30.9882 64.2646 30.9178 64.1652 30.7438 64.1652C30.5077 64.1652 30.3089 64.4385 30.3089 64.6705V65.9379C30.3089 65.9751 30.2758 66 30.1308 66ZM31.7836 63.1007C31.9202 63.1007 32.0031 63.167 32.0031 63.3368C32.0031 63.5066 31.9202 63.5729 31.7836 63.5729C31.651 63.5729 31.5682 63.5066 31.5682 63.3368C31.5682 63.167 31.651 63.1007 31.7836 63.1007ZM31.6096 65.6397V63.9498C31.6096 63.9125 31.6386 63.8877 31.7836 63.8877C31.9285 63.8877 31.9617 63.9125 31.9617 63.9456V65.5568C31.9617 65.7018 32.0155 65.7515 32.1522 65.7515C32.1812 65.7515 32.1936 65.7639 32.1936 65.7846C32.1936 65.8426 32.0528 66.0207 31.941 66.0207C31.7339 66.0207 31.6096 65.8675 31.6096 65.6397ZM34.2103 66.0207C33.9991 66.0207 33.8914 65.8633 33.8707 65.797C33.792 65.855 33.5352 66.0331 33.1831 66.0331C32.8021 66.0331 32.5039 65.8468 32.5039 65.4367C32.5039 64.8569 33.1293 64.7574 33.6346 64.6208C33.763 64.5876 33.8334 64.5586 33.8334 64.4965C33.8334 64.277 33.6677 64.1403 33.3654 64.1403C33.034 64.1403 32.8352 64.3226 32.7607 64.3226C32.7317 64.3226 32.7192 64.3101 32.7192 64.277C32.7192 64.2273 32.7441 64.132 32.7772 64.0575C32.8145 63.9871 33.0961 63.8545 33.4068 63.8545C33.9618 63.8545 34.1937 64.1155 34.1937 64.6332V65.561C34.1937 65.6894 34.2434 65.7432 34.3304 65.7515C34.3428 65.7556 34.4091 65.7556 34.4215 65.7556C34.4464 65.7556 34.4588 65.7639 34.4588 65.7846C34.4588 65.8426 34.3221 66.0207 34.2103 66.0207ZM32.8683 65.4077C32.8683 65.6645 33.0671 65.7556 33.3115 65.7556C33.5973 65.7515 33.8417 65.5734 33.8417 65.4988V64.8693C33.8417 64.8486 33.8334 64.832 33.8085 64.832C33.7878 64.832 33.7423 64.8444 33.6884 64.861C33.3736 64.9563 32.8683 65.0225 32.8683 65.4077ZM34.8864 66.381C34.8491 66.381 34.8242 66.3603 34.8242 66.3272C34.8242 66.2444 34.9775 66.174 34.9775 66.029C34.9775 65.9254 34.8988 65.9544 34.8988 65.7059C34.8988 65.5568 34.9816 65.4947 35.1183 65.4947C35.255 65.4947 35.3337 65.5485 35.3337 65.7101C35.3337 66.058 35.0313 66.381 34.8864 66.381ZM37.7842 66.0331C37.2334 66.0331 36.7281 65.7349 36.7281 64.9811C36.7281 64.2107 37.2416 63.8545 37.7925 63.8545C38.2191 63.8545 38.4221 64.0243 38.4221 64.0906C38.4221 64.161 38.3061 64.3143 38.244 64.3143C38.1984 64.3143 38.0949 64.1445 37.7718 64.1445C37.4777 64.1445 37.1174 64.364 37.1174 64.9604C37.1174 65.5154 37.4363 65.7391 37.8298 65.7391C38.1984 65.7391 38.3682 65.5403 38.4386 65.5403C38.4593 65.5403 38.4801 65.5568 38.4801 65.5858C38.4801 65.6521 38.4552 65.7308 38.4138 65.8095C38.3599 65.8757 38.1114 66.0331 37.7842 66.0331ZM39.8368 66.0331C39.3398 66.0331 38.8511 65.7184 38.8511 64.9355C38.8511 64.1569 39.3398 63.8545 39.8368 63.8545C40.3297 63.8545 40.8184 64.1569 40.8184 64.9355C40.8184 65.7184 40.3297 66.0331 39.8368 66.0331ZM39.8368 65.7598C40.1433 65.7598 40.4415 65.5485 40.4415 64.9314C40.4415 64.3101 40.1433 64.1113 39.8368 64.1113C39.5345 64.1113 39.2321 64.3101 39.2321 64.9314C39.2321 65.5485 39.5345 65.7598 39.8368 65.7598ZM42.686 65.6397V64.5711C42.686 64.2894 42.541 64.1486 42.2842 64.1486C41.9446 64.1486 41.6464 64.5131 41.6464 64.6332V65.9379C41.6464 65.9751 41.6133 66 41.4683 66C41.3233 66 41.2943 65.9751 41.2943 65.9379V64.3681C41.2943 64.1362 41.1659 64.0948 41.1659 64.045C41.1659 63.9912 41.3565 63.867 41.431 63.867C41.5139 63.867 41.6091 63.9664 41.634 64.1734C41.6381 64.1817 41.6423 64.2231 41.6423 64.2314C41.7085 64.1734 42.0109 63.8545 42.4126 63.8545C42.8144 63.8545 43.0381 64.0989 43.0381 64.4261V65.5568C43.0381 65.7018 43.0919 65.7515 43.2286 65.7515C43.2576 65.7515 43.27 65.7639 43.27 65.7846C43.27 65.8426 43.1292 66.0207 43.0173 66.0207C42.8103 66.0207 42.686 65.8675 42.686 65.6397ZM44.3951 66.0331C43.9022 66.0331 43.5708 65.7432 43.5708 65.6728C43.5708 65.6148 43.6992 65.4823 43.7448 65.4823C43.8028 65.4823 44.0057 65.7598 44.3992 65.7598C44.6477 65.7598 44.8092 65.6397 44.8092 65.4326C44.8092 65.2006 44.5814 65.1302 44.3288 65.0557C44.0057 64.9604 43.633 64.8651 43.633 64.4758C43.633 64.0865 43.9684 63.8545 44.4323 63.8545C44.8921 63.8545 45.0826 64.0616 45.0826 64.1237C45.0826 64.1859 44.9666 64.3184 44.9128 64.3184C44.8672 64.3184 44.7471 64.1155 44.4075 64.1155C44.1631 64.1155 43.985 64.2314 43.985 64.4302C43.985 64.6498 44.2087 64.7077 44.4572 64.774C44.7844 64.861 45.1613 64.9604 45.1613 65.387C45.1613 65.7722 44.83 66.0331 44.3951 66.0331ZM47.3062 66.0249C47.1074 66.0249 46.9832 65.884 46.9749 65.6728C46.8713 65.7722 46.6601 66.0331 46.2749 66.0331C45.8524 66.0331 45.5874 65.7763 45.5874 65.3829V63.9456C45.5874 63.9125 45.6205 63.8877 45.7613 63.8877C45.9063 63.8877 45.9394 63.9125 45.9394 63.9498V65.2669C45.9394 65.5775 46.0885 65.7308 46.3909 65.7308C46.7305 65.7308 46.9749 65.3829 46.9749 65.2503V63.9456C46.9749 63.9125 47.008 63.8877 47.153 63.8877C47.2979 63.8877 47.3269 63.9125 47.3269 63.9498V65.561C47.3269 65.7059 47.3808 65.7556 47.5175 65.7556C47.5465 65.7556 47.5589 65.7681 47.5589 65.7888C47.5589 65.8468 47.4181 66.0249 47.3062 66.0249ZM47.9785 65.6397V63.08C47.9785 63.0427 48.0116 63.0179 48.1566 63.0179C48.2974 63.0179 48.3306 63.0427 48.3306 63.0759V65.5568C48.3306 65.7018 48.3844 65.7515 48.5211 65.7515C48.5501 65.7515 48.5625 65.7639 48.5625 65.7846C48.5625 65.8426 48.4217 66.0207 48.3098 66.0207C48.1028 66.0207 47.9785 65.8675 47.9785 65.6397ZM48.9276 63.8877H49.1098V63.4652C49.1098 63.3782 49.3376 63.2995 49.4122 63.2995C49.4453 63.2995 49.4619 63.3161 49.4619 63.3534V63.8877H49.9009C49.934 63.8877 49.9547 63.9084 49.9547 63.9332C49.9547 64.0119 49.8429 64.1652 49.7766 64.1652H49.4619V65.3166C49.4619 65.5982 49.5737 65.7349 49.7849 65.7349C49.8346 65.7349 49.9216 65.7225 49.9257 65.7225C49.9506 65.7225 49.963 65.7349 49.963 65.7598C49.963 65.8302 49.8139 66.0207 49.6482 66.0207C49.3086 66.0207 49.1098 65.7888 49.1098 65.445V64.1652H48.9276C48.8903 64.1652 48.8654 64.132 48.8654 64.0285C48.8654 63.9208 48.8903 63.8877 48.9276 63.8877ZM51.2754 66.0331C50.7784 66.0331 50.2897 65.7184 50.2897 64.9355C50.2897 64.1569 50.7784 63.8545 51.2754 63.8545C51.7683 63.8545 52.2571 64.1569 52.2571 64.9355C52.2571 65.7184 51.7683 66.0331 51.2754 66.0331ZM51.2754 65.7598C51.5819 65.7598 51.8801 65.5485 51.8801 64.9314C51.8801 64.3101 51.5819 64.1113 51.2754 64.1113C50.9731 64.1113 50.6707 64.3101 50.6707 64.9314C50.6707 65.5485 50.9731 65.7598 51.2754 65.7598ZM52.9069 66C52.7619 66 52.7329 65.9751 52.7329 65.9379V64.3681C52.7329 64.1362 52.6045 64.0948 52.6045 64.045C52.6045 63.9912 52.7951 63.867 52.8696 63.867C52.9607 63.867 53.0477 63.9746 53.0809 64.1817C53.0809 64.1817 53.3004 63.8545 53.6359 63.8545C53.843 63.8545 54.0004 63.9456 54.0004 64.0078C54.0004 64.0492 53.9258 64.1693 53.872 64.2273C53.8471 64.2521 53.8305 64.2646 53.8098 64.2646C53.7643 64.2646 53.6939 64.1652 53.5199 64.1652C53.2838 64.1652 53.085 64.4385 53.085 64.6705V65.9379C53.085 65.9751 53.0519 66 52.9069 66ZM54.5597 63.1007C54.6963 63.1007 54.7792 63.167 54.7792 63.3368C54.7792 63.5066 54.6963 63.5729 54.5597 63.5729C54.4271 63.5729 54.3443 63.5066 54.3443 63.3368C54.3443 63.167 54.4271 63.1007 54.5597 63.1007ZM54.3857 65.6397V63.9498C54.3857 63.9125 54.4147 63.8877 54.5597 63.8877C54.7046 63.8877 54.7378 63.9125 54.7378 63.9456V65.5568C54.7378 65.7018 54.7916 65.7515 54.9283 65.7515C54.9573 65.7515 54.9697 65.7639 54.9697 65.7846C54.9697 65.8426 54.8289 66.0207 54.7171 66.0207C54.51 66.0207 54.3857 65.8675 54.3857 65.6397ZM56.9864 66.0207C56.7752 66.0207 56.6675 65.8633 56.6468 65.797C56.5681 65.855 56.3113 66.0331 55.9592 66.0331C55.5782 66.0331 55.28 65.8468 55.28 65.4367C55.28 64.8569 55.9054 64.7574 56.4107 64.6208C56.5391 64.5876 56.6095 64.5586 56.6095 64.4965C56.6095 64.277 56.4438 64.1403 56.1415 64.1403C55.8101 64.1403 55.6113 64.3226 55.5367 64.3226C55.5078 64.3226 55.4953 64.3101 55.4953 64.277C55.4953 64.2273 55.5202 64.132 55.5533 64.0575C55.5906 63.9871 55.8722 63.8545 56.1829 63.8545C56.7379 63.8545 56.9698 64.1155 56.9698 64.6332V65.561C56.9698 65.6894 57.0195 65.7432 57.1065 65.7515C57.1189 65.7556 57.1852 65.7556 57.1976 65.7556C57.2225 65.7556 57.2349 65.7639 57.2349 65.7846C57.2349 65.8426 57.0982 66.0207 56.9864 66.0207ZM55.6444 65.4077C55.6444 65.6645 55.8432 65.7556 56.0876 65.7556C56.3734 65.7515 56.6178 65.5734 56.6178 65.4988V64.8693C56.6178 64.8486 56.6095 64.832 56.5846 64.832C56.5639 64.832 56.5184 64.8444 56.4645 64.861C56.1497 64.9563 55.6444 65.0225 55.6444 65.4077ZM59.4754 66.0331C58.9536 66.0331 58.4566 65.7473 58.4566 65.0308C58.4566 64.1983 58.9909 63.8545 59.4713 63.8545C59.9476 63.8545 60.192 64.103 60.192 64.4178C60.192 64.9977 59.405 65.2089 58.8625 65.242C58.9329 65.5817 59.2062 65.7391 59.5127 65.7391C59.8565 65.7391 60.0139 65.5858 60.0884 65.5568C60.1299 65.5361 60.1589 65.5444 60.1589 65.5858C60.1589 65.6521 60.134 65.7308 60.0926 65.8095C60.0387 65.8757 59.7985 66.0331 59.4754 66.0331ZM59.4837 64.103C59.1731 64.103 58.85 64.3433 58.8417 65.0225C59.2766 64.9935 59.8316 64.8196 59.8316 64.4012C59.8316 64.2273 59.6991 64.103 59.4837 64.103ZM62.505 66.0331C61.9831 66.0331 61.4861 65.7473 61.4861 65.0308C61.4861 64.1983 62.0204 63.8545 62.5008 63.8545C62.9772 63.8545 63.2215 64.103 63.2215 64.4178C63.2215 64.9977 62.4346 65.2089 61.892 65.242C61.9624 65.5817 62.2358 65.7391 62.5423 65.7391C62.886 65.7391 63.0434 65.5858 63.118 65.5568C63.1594 65.5361 63.1884 65.5444 63.1884 65.5858C63.1884 65.6521 63.1635 65.7308 63.1221 65.8095C63.0683 65.8757 62.828 66.0331 62.505 66.0331ZM62.5133 64.103C62.2026 64.103 61.8796 64.3433 61.8713 65.0225C62.3062 64.9935 62.8612 64.8196 62.8612 64.4012C62.8612 64.2273 62.7286 64.103 62.5133 64.103ZM64.4174 66.0331C64.0487 66.0331 63.6594 65.7598 63.6594 65.3622V63.9498C63.6594 63.9125 63.6884 63.8877 63.8334 63.8877C63.9783 63.8877 64.0114 63.9125 64.0114 63.9456V65.2917C64.0114 65.5817 64.2227 65.7349 64.4588 65.7349C64.7404 65.7349 65.0469 65.3663 65.0469 64.7782C65.0469 64.2729 64.8274 63.9995 64.8274 63.9539C64.8274 63.9167 64.8854 63.8877 64.9765 63.8877C65.1215 63.8877 65.1836 63.9374 65.2209 64.0078C65.2789 64.132 65.4031 64.3557 65.4031 64.7574C65.4031 65.4823 64.9144 66.0331 64.4174 66.0331ZM66.7884 66.0331C66.2665 66.0331 65.7695 65.7473 65.7695 65.0308C65.7695 64.1983 66.3038 63.8545 66.7843 63.8545C67.2606 63.8545 67.5049 64.103 67.5049 64.4178C67.5049 64.9977 66.718 65.2089 66.1754 65.242C66.2458 65.5817 66.5192 65.7391 66.8257 65.7391C67.1694 65.7391 67.3268 65.5858 67.4014 65.5568C67.4428 65.5361 67.4718 65.5444 67.4718 65.5858C67.4718 65.6521 67.4469 65.7308 67.4055 65.8095C67.3517 65.8757 67.1115 66.0331 66.7884 66.0331ZM66.7967 64.103C66.486 64.103 66.163 64.3433 66.1547 65.0225C66.5896 64.9935 67.1446 64.8196 67.1446 64.4012C67.1446 64.2273 67.0121 64.103 66.7967 64.103ZM69.4421 65.6397V64.5711C69.4421 64.2894 69.2972 64.1486 69.0404 64.1486C68.7008 64.1486 68.4025 64.5131 68.4025 64.6332V65.9379C68.4025 65.9751 68.3694 66 68.2244 66C68.0795 66 68.0505 65.9751 68.0505 65.9379V64.3681C68.0505 64.1362 67.9221 64.0948 67.9221 64.045C67.9221 63.9912 68.1126 63.867 68.1872 63.867C68.27 63.867 68.3653 63.9664 68.3901 64.1734C68.3943 64.1817 68.3984 64.2231 68.3984 64.2314C68.4647 64.1734 68.767 63.8545 69.1688 63.8545C69.5705 63.8545 69.7942 64.0989 69.7942 64.4261V65.5568C69.7942 65.7018 69.8481 65.7515 69.9847 65.7515C70.0137 65.7515 70.0261 65.7639 70.0261 65.7846C70.0261 65.8426 69.8853 66.0207 69.7735 66.0207C69.5664 66.0207 69.4421 65.8675 69.4421 65.6397ZM70.3891 63.8877H70.5714V63.4652C70.5714 63.3782 70.7992 63.2995 70.8737 63.2995C70.9068 63.2995 70.9234 63.3161 70.9234 63.3534V63.8877H71.3624C71.3956 63.8877 71.4163 63.9084 71.4163 63.9332C71.4163 64.0119 71.3045 64.1652 71.2382 64.1652H70.9234V65.3166C70.9234 65.5982 71.0352 65.7349 71.2465 65.7349C71.2962 65.7349 71.3832 65.7225 71.3873 65.7225C71.4121 65.7225 71.4246 65.7349 71.4246 65.7598C71.4246 65.8302 71.2755 66.0207 71.1098 66.0207C70.7702 66.0207 70.5714 65.7888 70.5714 65.445V64.1652H70.3891C70.3518 64.1652 70.327 64.132 70.327 64.0285C70.327 63.9208 70.3518 63.8877 70.3891 63.8877ZM72.737 66.0331C72.24 66.0331 71.7512 65.7184 71.7512 64.9355C71.7512 64.1569 72.24 63.8545 72.737 63.8545C73.2299 63.8545 73.7186 64.1569 73.7186 64.9355C73.7186 65.7184 73.2299 66.0331 72.737 66.0331ZM72.737 65.7598C73.0435 65.7598 73.3417 65.5485 73.3417 64.9314C73.3417 64.3101 73.0435 64.1113 72.737 64.1113C72.4346 64.1113 72.1323 64.3101 72.1323 64.9314C72.1323 65.5485 72.4346 65.7598 72.737 65.7598ZM74.8967 66.0331C74.4038 66.0331 74.0724 65.7432 74.0724 65.6728C74.0724 65.6148 74.2008 65.4823 74.2464 65.4823C74.3044 65.4823 74.5073 65.7598 74.9008 65.7598C75.1493 65.7598 75.3109 65.6397 75.3109 65.4326C75.3109 65.2006 75.0831 65.1302 74.8304 65.0557C74.5073 64.9604 74.1346 64.8651 74.1346 64.4758C74.1346 64.0865 74.4701 63.8545 74.9339 63.8545C75.3937 63.8545 75.5842 64.0616 75.5842 64.1237C75.5842 64.1859 75.4682 64.3184 75.4144 64.3184C75.3688 64.3184 75.2487 64.1155 74.9091 64.1155C74.6647 64.1155 74.4866 64.2314 74.4866 64.4302C74.4866 64.6498 74.7103 64.7077 74.9588 64.774C75.286 64.861 75.6629 64.9604 75.6629 65.387C75.6629 65.7722 75.3316 66.0331 74.8967 66.0331ZM76.3665 66.0207C76.2257 66.0207 76.1387 65.942 76.1387 65.7681C76.1387 65.59 76.2257 65.5113 76.3665 65.5113C76.5073 65.5113 76.6026 65.59 76.6026 65.7681C76.6026 65.942 76.5114 66.0207 76.3665 66.0207Z" fill="#570010"/>
</svg>
